<svg width="513" height="512" viewBox="0 0 513 512" fill="none" xmlns="http://www.w3.org/2000/svg">
<g clip-path="url(#clip0_156864_391)">
<mask id="mask0_156864_391" style="mask-type:luminance" maskUnits="userSpaceOnUse" x="0" y="0" width="513" height="512">
<path d="M512.5 0H0.5V512H512.5V0Z" fill="white"/>
</mask>
<g mask="url(#mask0_156864_391)">
<path d="M488.61 224.503H485.298C485.485 216.638 482.502 208.696 476.666 202.285C469.692 194.625 460.074 190.723 450.368 191.275C443.002 170.437 423.038 155.955 400.427 155.955C383.308 155.955 367.483 164.156 357.597 177.768C348.316 174.218 337.919 175.04 329.351 179.855C320.249 163.009 302.325 151.929 282.703 151.929C269.066 151.929 256.246 157.067 246.495 166.246C232.769 156.318 213.425 158.261 201.99 171.22C198.284 175.421 195.734 180.42 194.504 185.776C194.276 185.773 194.048 185.771 193.82 185.771C169.982 185.771 149.101 202.023 142.808 224.502H126.589V200.72C126.589 188.314 116.495 178.22 104.089 178.22C101.113 178.22 98.27 178.801 95.667 179.856V115.707C95.667 106.977 102.771 99.873 111.501 99.873C118.504 99.873 124.459 104.444 126.542 110.758C118.527 114.186 112.896 122.15 112.896 131.404C112.896 143.779 122.963 153.846 135.338 153.846H165.912C178.286 153.846 188.353 143.779 188.353 131.404C188.353 121.156 181.449 112.491 172.049 109.815C169.076 79.025 143.055 54.873 111.499 54.873C102.575 54.873 93.97 56.77 85.922 60.514C82.166 62.261 80.538 66.722 82.284 70.478C84.031 74.234 88.491 75.862 92.248 74.116C98.3 71.301 104.776 69.874 111.499 69.874C134.48 69.874 153.565 86.877 156.836 108.963H141.59C138.506 95.194 126.186 84.874 111.501 84.874C94.499 84.874 80.667 98.706 80.667 115.708V224.504H65.667V115.707C65.667 107.028 68.114 98.577 72.743 91.267C74.96 87.768 73.919 83.134 70.42 80.918C66.92 78.698 62.287 79.742 60.071 83.241C53.919 92.956 50.667 104.182 50.667 115.707V179.506C48.32 178.674 45.795 178.221 43.167 178.221C30.761 178.221 20.667 188.315 20.667 200.721V224.793C9.256 226.587 0.5 236.494 0.5 248.477C0.5 261.649 11.217 272.366 24.39 272.366H26.89V356.827C26.89 410.23 65.242 454.843 115.849 464.571L106.79 473.63C98.018 482.403 98.018 496.677 106.79 505.45C115.47 514.13 129.93 514.13 138.61 505.45L177.521 466.54H335.478L374.389 505.449C383.069 514.13 397.529 514.13 406.209 505.45C414.981 496.677 414.981 482.403 406.209 473.63L397.15 464.571C447.757 454.843 486.109 410.229 486.109 356.827V272.366C500.045 273.252 512.499 262.685 512.499 248.391C512.5 235.22 501.783 224.503 488.61 224.503ZM165.913 138.846H135.339C131.235 138.846 127.897 135.507 127.897 131.404C127.897 127.3 131.236 123.962 135.339 123.962H165.913C170.017 123.962 173.354 127.301 173.354 131.404C173.354 135.508 170.017 138.846 165.913 138.846ZM193.82 200.771C195.847 200.771 197.914 200.94 199.962 201.273C205.234 201.469 208.134 198.942 208.663 193.693C208.264 176.651 230.36 168.552 241.142 181.63C245.084 185.316 248.98 185.269 252.831 181.489C260.089 172.236 270.977 166.929 282.702 166.929C299.367 166.929 314.324 178.078 319.074 194.041C320.954 200.356 327.26 200.036 331.999 196.732C338.12 189.84 348.442 188.565 356.041 193.775C360.456 196.127 364.076 195.24 366.903 191.113C373.52 178.678 386.365 170.954 400.426 170.954C418.405 170.954 434.045 183.719 437.617 201.306C439.123 206.02 442.306 207.912 447.167 206.984C454.947 204.595 461.772 208.207 465.573 212.381C468.246 215.318 470.511 219.729 470.288 224.502H158.634C164.334 210.514 178.19 200.771 193.82 200.771ZM96.589 200.721C96.589 196.585 99.953 193.221 104.089 193.221C108.225 193.221 111.589 196.585 111.589 200.721V224.503H96.589V200.721ZM35.667 200.721C35.667 196.585 39.031 193.221 43.167 193.221C47.303 193.221 50.667 196.585 50.667 200.721V224.503H35.667V200.721ZM128.003 494.844C124.468 497.773 120.932 497.772 117.398 494.843C114.473 491.919 114.473 487.161 117.398 484.238L135.106 466.53C142.171 466.627 149.243 466.54 156.308 466.54L128.003 494.844ZM395.603 484.237C398.528 487.161 398.528 491.919 395.603 494.842C392.068 497.772 388.533 497.772 384.998 494.842L356.695 466.539C363.76 466.539 370.832 466.622 377.896 466.529L395.603 484.237ZM488.61 257.366H417.434C413.291 257.366 409.934 260.723 409.934 264.866C409.934 269.009 413.291 272.366 417.434 272.366H471.11V356.827C471.11 407.563 431.009 449.11 380.837 451.437C299.437 452.128 218.007 451.54 136.602 451.54C84.377 451.54 41.889 409.052 41.889 356.827V272.366H387.694C391.837 272.366 395.194 269.009 395.194 264.866C395.194 260.723 391.837 257.366 387.694 257.366H24.39C19.489 257.366 15.5 253.379 15.5 248.391C15.5 243.49 19.488 239.502 24.39 239.502H488.61C493.511 239.502 497.5 243.489 497.5 248.477C497.5 253.379 493.512 257.366 488.61 257.366Z" fill="#1F2937"/>
<path d="M217.497 411.54H136.602C106.433 411.54 81.8892 386.995 81.8892 356.826C81.8892 352.683 78.5322 349.326 74.3892 349.326C70.2462 349.326 66.8892 352.683 66.8892 356.826C66.8892 395.266 98.1622 426.54 136.602 426.54H217.497C221.64 426.54 224.997 423.183 224.997 419.04C224.997 414.897 221.64 411.54 217.497 411.54Z" fill="#1F2937"/>
<path d="M344.929 145.599C361.941 145.599 375.781 131.759 375.781 114.747C375.781 97.7346 361.941 83.8936 344.929 83.8936C327.917 83.8936 314.076 97.7346 314.076 114.747C314.076 131.759 327.917 145.599 344.929 145.599ZM344.929 98.8946C353.669 98.8946 360.781 106.006 360.781 114.748C360.781 123.488 353.67 130.6 344.929 130.6C336.188 130.6 329.076 123.489 329.076 114.748C329.076 106.007 336.188 98.8946 344.929 98.8946Z" fill="#1F2937"/>
<path d="M263.688 99.2626C276.967 99.2626 287.771 88.4596 287.771 75.1806C287.771 61.9016 276.967 51.0986 263.688 51.0986C250.409 51.0986 239.606 61.9016 239.606 75.1806C239.606 88.4596 250.409 99.2626 263.688 99.2626ZM263.688 66.0986C268.697 66.0986 272.771 70.1726 272.771 75.1806C272.771 80.1886 268.697 84.2626 263.688 84.2626C258.68 84.2626 254.606 80.1886 254.606 75.1806C254.606 70.1726 258.681 66.0986 263.688 66.0986Z" fill="#1F2937"/>
<path d="M415.246 48.204C428.525 48.204 439.329 37.401 439.329 24.122C439.329 10.843 428.525 0.0400391 415.246 0.0400391C401.967 0.0400391 391.164 10.843 391.164 24.122C391.164 37.401 401.967 48.204 415.246 48.204ZM415.246 15.04C420.255 15.04 424.329 19.114 424.329 24.122C424.329 29.13 420.255 33.204 415.246 33.204C410.238 33.204 406.164 29.13 406.164 24.122C406.164 19.114 410.238 15.04 415.246 15.04Z" fill="#1F2937"/>
</g>
</g>
<defs>
<clipPath id="clip0_156864_391">
<rect width="512" height="512" fill="white" transform="translate(0.5)"/>
</clipPath>
</defs>
</svg>
