<svg width="512" height="512" viewBox="0 0 512 512" fill="none" xmlns="http://www.w3.org/2000/svg">
<g clip-path="url(#clip0_156849_361)">
<path d="M488.11 224.503H484.798C484.985 216.638 482.002 208.696 476.166 202.285C469.192 194.625 459.574 190.723 449.868 191.275C442.502 170.437 422.538 155.955 399.927 155.955C382.808 155.955 366.983 164.156 357.097 177.768C347.816 174.218 337.419 175.04 328.851 179.855C319.749 163.009 301.825 151.929 282.203 151.929C268.566 151.929 255.746 157.067 245.995 166.246C232.269 156.318 212.925 158.261 201.49 171.22C197.784 175.421 195.234 180.42 194.004 185.776C193.776 185.773 193.548 185.771 193.32 185.771C169.482 185.771 148.601 202.023 142.308 224.502H126.089V200.72C126.089 188.314 115.995 178.22 103.589 178.22C100.613 178.22 97.77 178.801 95.167 179.856V115.707C95.167 106.977 102.271 99.873 111.001 99.873C118.004 99.873 123.959 104.444 126.042 110.758C118.027 114.186 112.396 122.15 112.396 131.404C112.396 143.779 122.463 153.846 134.838 153.846H165.412C177.786 153.846 187.853 143.779 187.853 131.404C187.853 121.156 180.949 112.491 171.549 109.815C168.576 79.025 142.555 54.873 110.999 54.873C102.075 54.873 93.47 56.77 85.422 60.514C81.666 62.261 80.038 66.722 81.784 70.478C83.531 74.234 87.991 75.862 91.748 74.116C97.8 71.301 104.276 69.874 110.999 69.874C133.98 69.874 153.065 86.877 156.336 108.963H141.09C138.006 95.194 125.686 84.874 111.001 84.874C93.999 84.874 80.167 98.706 80.167 115.708V224.504H65.167V115.707C65.167 107.028 67.614 98.577 72.243 91.267C74.46 87.768 73.419 83.134 69.92 80.918C66.42 78.698 61.787 79.742 59.571 83.241C53.419 92.956 50.167 104.182 50.167 115.707V179.506C47.82 178.674 45.295 178.221 42.667 178.221C30.261 178.221 20.167 188.315 20.167 200.721V224.793C8.756 226.587 0 236.494 0 248.477C0 261.649 10.717 272.366 23.89 272.366H26.39V356.827C26.39 410.23 64.742 454.843 115.349 464.571L106.29 473.63C97.518 482.403 97.518 496.677 106.29 505.45C114.97 514.13 129.43 514.13 138.11 505.45L177.021 466.54H334.978L373.889 505.449C382.569 514.13 397.029 514.13 405.709 505.45C414.481 496.677 414.481 482.403 405.709 473.63L396.65 464.571C447.257 454.843 485.609 410.229 485.609 356.827V272.366C499.545 273.252 511.999 262.685 511.999 248.391C512 235.22 501.283 224.503 488.11 224.503ZM165.413 138.846H134.839C130.735 138.846 127.397 135.507 127.397 131.404C127.397 127.3 130.736 123.962 134.839 123.962H165.413C169.517 123.962 172.854 127.301 172.854 131.404C172.854 135.508 169.517 138.846 165.413 138.846ZM193.32 200.771C195.347 200.771 197.414 200.94 199.462 201.273C204.734 201.469 207.634 198.942 208.163 193.693C207.764 176.651 229.86 168.552 240.642 181.63C244.584 185.316 248.48 185.269 252.331 181.489C259.589 172.236 270.477 166.929 282.202 166.929C298.867 166.929 313.824 178.078 318.574 194.041C320.454 200.356 326.76 200.036 331.499 196.732C337.62 189.84 347.942 188.565 355.541 193.775C359.956 196.127 363.576 195.24 366.403 191.113C373.02 178.678 385.865 170.954 399.926 170.954C417.905 170.954 433.545 183.719 437.117 201.306C438.623 206.02 441.806 207.912 446.667 206.984C454.447 204.595 461.272 208.207 465.073 212.381C467.746 215.318 470.011 219.729 469.788 224.502H158.134C163.834 210.514 177.69 200.771 193.32 200.771ZM96.089 200.721C96.089 196.585 99.453 193.221 103.589 193.221C107.725 193.221 111.089 196.585 111.089 200.721V224.503H96.089V200.721ZM35.167 200.721C35.167 196.585 38.531 193.221 42.667 193.221C46.803 193.221 50.167 196.585 50.167 200.721V224.503H35.167V200.721ZM127.503 494.844C123.968 497.773 120.432 497.772 116.898 494.843C113.973 491.919 113.973 487.161 116.898 484.238L134.606 466.53C141.671 466.627 148.743 466.54 155.808 466.54L127.503 494.844ZM395.103 484.237C398.028 487.161 398.028 491.919 395.103 494.842C391.568 497.772 388.033 497.772 384.498 494.842L356.195 466.539C363.26 466.539 370.332 466.622 377.396 466.529L395.103 484.237ZM488.11 257.366H416.934C412.791 257.366 409.434 260.723 409.434 264.866C409.434 269.009 412.791 272.366 416.934 272.366H470.61V356.827C470.61 407.563 430.509 449.11 380.337 451.437C298.937 452.128 217.507 451.54 136.102 451.54C83.877 451.54 41.389 409.052 41.389 356.827V272.366H387.194C391.337 272.366 394.694 269.009 394.694 264.866C394.694 260.723 391.337 257.366 387.194 257.366H23.89C18.989 257.366 15 253.379 15 248.391C15 243.49 18.988 239.502 23.89 239.502H488.11C493.011 239.502 497 243.489 497 248.477C497 253.379 493.012 257.366 488.11 257.366Z" fill="white"/>
<path d="M216.997 411.54H136.102C105.933 411.54 81.389 386.995 81.389 356.826C81.389 352.683 78.032 349.326 73.889 349.326C69.746 349.326 66.389 352.683 66.389 356.826C66.389 395.266 97.662 426.54 136.102 426.54H216.997C221.14 426.54 224.497 423.183 224.497 419.04C224.497 414.897 221.14 411.54 216.997 411.54Z" fill="white"/>
<path d="M344.429 145.599C361.441 145.599 375.281 131.759 375.281 114.747C375.281 97.7346 361.441 83.8936 344.429 83.8936C327.417 83.8936 313.576 97.7346 313.576 114.747C313.576 131.759 327.417 145.599 344.429 145.599ZM344.429 98.8946C353.169 98.8946 360.281 106.006 360.281 114.748C360.281 123.488 353.17 130.6 344.429 130.6C335.688 130.6 328.576 123.489 328.576 114.748C328.576 106.007 335.688 98.8946 344.429 98.8946Z" fill="white"/>
<path d="M263.188 99.2626C276.467 99.2626 287.271 88.4596 287.271 75.1806C287.271 61.9016 276.467 51.0986 263.188 51.0986C249.909 51.0986 239.106 61.9016 239.106 75.1806C239.106 88.4596 249.909 99.2626 263.188 99.2626ZM263.188 66.0986C268.197 66.0986 272.271 70.1726 272.271 75.1806C272.271 80.1886 268.197 84.2626 263.188 84.2626C258.18 84.2626 254.106 80.1886 254.106 75.1806C254.106 70.1726 258.181 66.0986 263.188 66.0986Z" fill="white"/>
<path d="M414.746 48.204C428.025 48.204 438.829 37.401 438.829 24.122C438.829 10.843 428.025 0.0400391 414.746 0.0400391C401.467 0.0400391 390.664 10.843 390.664 24.122C390.664 37.401 401.467 48.204 414.746 48.204ZM414.746 15.04C419.755 15.04 423.829 19.114 423.829 24.122C423.829 29.13 419.755 33.204 414.746 33.204C409.738 33.204 405.664 29.13 405.664 24.122C405.664 19.114 409.738 15.04 414.746 15.04Z" fill="white"/>
</g>
<defs>
<clipPath id="clip0_156849_361">
<rect width="512" height="512" fill="white"/>
</clipPath>
</defs>
</svg>
