<svg width="684" height="683" viewBox="0 0 684 683" fill="none" xmlns="http://www.w3.org/2000/svg">
<g clip-path="url(#clip0_156864_401)">
<mask id="mask0_156864_401" style="mask-type:luminance" maskUnits="userSpaceOnUse" x="0" y="0" width="684" height="683">
<path d="M0.5 0.00012207H683.167V682.667H0.5V0.00012207Z" fill="white"/>
</mask>
<g mask="url(#mask0_156864_401)">
<path d="M136.056 198.416H25.6125C17.2658 198.416 10.5005 191.65 10.5005 183.304V118.252C10.5005 109.905 17.2658 103.14 25.6125 103.14H216.271C224.616 103.14 231.383 109.905 231.383 118.252V183.304C231.383 191.65 224.616 198.416 216.271 198.416" stroke="#1F2937" stroke-width="20" stroke-miterlimit="10" stroke-linecap="round" stroke-linejoin="round"/>
<path d="M326.715 293.692C335.061 293.692 341.827 286.926 341.827 278.58" stroke="#1F2937" stroke-width="20" stroke-miterlimit="10" stroke-linecap="round" stroke-linejoin="round"/>
<path d="M216.271 293.692H246.501" stroke="#1F2937" stroke-width="20" stroke-miterlimit="10" stroke-linecap="round" stroke-linejoin="round"/>
<path d="M341.827 213.527C341.827 205.181 335.061 198.415 326.715 198.415H136.057C127.71 198.415 120.945 205.181 120.945 213.527V278.579C120.945 286.926 127.71 293.691 136.057 293.691" stroke="#1F2937" stroke-width="20" stroke-miterlimit="10" stroke-linecap="round" stroke-linejoin="round"/>
<path d="M547.604 293.692C555.95 293.692 562.716 286.926 562.716 278.58V213.528C562.716 205.181 555.95 198.416 547.604 198.416H356.945C348.598 198.416 341.833 205.181 341.833 213.528V221.34" stroke="#1F2937" stroke-width="20" stroke-miterlimit="10" stroke-linecap="round" stroke-linejoin="round"/>
<path d="M437.159 293.692H467.39" stroke="#1F2937" stroke-width="20" stroke-miterlimit="10" stroke-linecap="round" stroke-linejoin="round"/>
<path d="M341.833 265.328V278.58C341.833 286.926 348.598 293.692 356.945 293.692" stroke="#1F2937" stroke-width="20" stroke-miterlimit="10" stroke-linecap="round" stroke-linejoin="round"/>
<path d="M136.056 388.968H25.6125C17.2658 388.968 10.5005 382.202 10.5005 373.856V308.803C10.5005 300.458 17.2658 293.691 25.6125 293.691H216.271C224.616 293.691 231.383 300.458 231.383 308.803" stroke="#1F2937" stroke-width="20" stroke-miterlimit="10" stroke-linecap="round" stroke-linejoin="round"/>
<path d="M231.383 373.856C231.383 382.202 224.617 388.968 216.271 388.968" stroke="#1F2937" stroke-width="20" stroke-miterlimit="10" stroke-linecap="round" stroke-linejoin="round"/>
<path d="M246.501 388.968C238.154 388.968 231.389 382.202 231.389 373.856V308.803C231.389 300.458 238.154 293.691 246.501 293.691H437.16C445.505 293.691 452.272 300.458 452.272 308.803" stroke="#1F2937" stroke-width="20" stroke-miterlimit="10" stroke-linecap="round" stroke-linejoin="round"/>
<path d="M452.272 373.856C452.272 382.202 445.505 388.968 437.16 388.968H326.716" stroke="#1F2937" stroke-width="20" stroke-miterlimit="10" stroke-linecap="round" stroke-linejoin="round"/>
<path d="M563.16 388.968H658.048C666.394 388.968 673.16 382.202 673.16 373.856V308.804C673.16 300.457 666.394 293.692 658.048 293.692H467.39C459.043 293.692 452.278 300.457 452.278 308.804V373.856C452.278 382.202 459.043 388.968 467.39 388.968H519.172" stroke="#1F2937" stroke-width="20" stroke-miterlimit="10" stroke-linecap="round" stroke-linejoin="round"/>
<path d="M246.501 484.244H136.057C127.711 484.244 120.945 477.478 120.945 469.132V404.08C120.945 395.734 127.711 388.968 136.057 388.968H326.716C335.061 388.968 341.828 395.734 341.828 404.08V469.132C341.828 477.478 335.061 484.244 326.716 484.244" stroke="#1F2937" stroke-width="20" stroke-miterlimit="10" stroke-linecap="round" stroke-linejoin="round"/>
<path d="M452.272 499.356C452.272 491.01 445.505 484.244 437.16 484.244H416.495" stroke="#1F2937" stroke-width="20" stroke-miterlimit="10" stroke-linecap="round" stroke-linejoin="round"/>
<path d="M372.506 484.244H246.502C238.155 484.244 231.388 491.01 231.388 499.356V564.408C231.388 572.754 238.155 579.52 246.502 579.52H437.16C445.505 579.52 452.272 572.754 452.272 564.408" stroke="#1F2937" stroke-width="20" stroke-miterlimit="10" stroke-linecap="round" stroke-linejoin="round"/>
<path d="M658.048 579.52H467.39C459.043 579.52 452.278 572.755 452.278 564.408V499.356C452.278 491.01 459.043 484.244 467.39 484.244H658.048C666.395 484.244 673.16 491.01 673.16 499.356V564.408C673.16 572.755 666.395 579.52 658.048 579.52Z" stroke="#1F2937" stroke-width="20" stroke-miterlimit="10" stroke-linecap="round" stroke-linejoin="round"/>
</g>
</g>
<defs>
<clipPath id="clip0_156864_401">
<rect width="682.667" height="682.667" fill="white" transform="translate(0.5)"/>
</clipPath>
</defs>
</svg>
