<svg width="513" height="512" viewBox="0 0 513 512" fill="none" xmlns="http://www.w3.org/2000/svg">
<g clip-path="url(#clip0_156864_440)">
<path d="M333 470.525H15.5V305.445H101.5V339.345H88.364C82.023 339.345 76.864 344.504 76.864 350.845V385.047C76.864 391.388 82.023 396.547 88.364 396.547H202.364C208.705 396.547 213.864 391.388 213.864 385.047V350.845C213.864 344.504 208.705 339.345 202.364 339.345H189.228V305.445H239C243.143 305.445 246.5 302.088 246.5 297.945C246.5 293.802 243.143 290.445 239 290.445H189.229V251.045C189.229 246.099 185.427 242.027 180.593 241.589V33.9746C180.593 29.8316 177.236 26.4746 173.093 26.4746C168.95 26.4746 165.593 29.8316 165.593 33.9746V54.5046H125.136V33.9746C125.136 29.8316 121.779 26.4746 117.636 26.4746C113.493 26.4746 110.136 29.8316 110.136 33.9746V241.589C105.302 242.027 101.5 246.099 101.5 251.045V290.445H13C6.107 290.445 0.5 296.052 0.5 302.945V473.025C0.5 479.918 6.107 485.525 13 485.525H333C337.143 485.525 340.5 482.168 340.5 478.025C340.5 473.882 337.143 470.525 333 470.525ZM165.593 166.984L134.345 131.856H165.593V166.984ZM156.384 179.199H125.136V144.071L156.384 179.199ZM165.593 194.199V229.329L134.344 194.199H165.593ZM125.136 116.856V81.7226L156.385 116.857L125.136 116.856ZM125.136 206.415L156.385 241.545H125.136V206.415ZM198.864 381.548H91.864V354.346H198.864V381.548ZM116.5 339.346V256.545H174.229V339.346H116.5ZM165.593 104.639L134.344 69.5046H165.593V104.639Z" fill="#1F2937"/>
<path d="M500 290.445H411.5V251.045C411.5 246.099 407.698 242.027 402.864 241.589V33.9746C402.864 29.8316 399.507 26.4746 395.364 26.4746C391.221 26.4746 387.864 29.8316 387.864 33.9746V54.5046H347.407V33.9746C347.407 29.8316 344.05 26.4746 339.907 26.4746C335.764 26.4746 332.407 29.8316 332.407 33.9746V241.589C327.573 242.027 323.771 246.099 323.771 251.045V290.445H274C269.857 290.445 266.5 293.802 266.5 297.945C266.5 302.088 269.857 305.445 274 305.445H323.771V339.345H310.635C304.294 339.345 299.135 344.504 299.135 350.845V385.047C299.135 391.388 304.294 396.547 310.635 396.547H424.635C430.976 396.547 436.135 391.388 436.135 385.047V350.845C436.135 344.504 430.976 339.345 424.635 339.345H411.5V305.445H497.5V470.525H368C363.857 470.525 360.5 473.882 360.5 478.025C360.5 482.168 363.857 485.525 368 485.525H500C506.893 485.525 512.5 479.918 512.5 473.025V302.945C512.5 296.053 506.893 290.445 500 290.445ZM387.864 166.984L356.616 131.856H387.864V166.984ZM378.655 179.199H347.407V144.071L378.655 179.199ZM387.864 194.199V229.329L356.615 194.199H387.864ZM347.407 116.856V81.7226L378.656 116.857L347.407 116.856ZM347.407 206.415L378.656 241.545H347.407V206.415ZM387.864 104.639L356.615 69.5046H387.864V104.639ZM421.136 381.548H314.136V354.346H421.136V381.548ZM338.771 339.346V256.545H396.5V339.346H338.771Z" fill="#1F2937"/>
<path d="M71.062 424.1C68.133 427.03 68.133 431.778 71.062 434.707L79.33 442.975C80.795 444.439 82.715 445.171 84.634 445.171C86.553 445.171 88.473 444.439 89.938 442.975C92.867 440.045 92.867 435.297 89.938 432.368L81.67 424.1C78.739 421.172 73.991 421.172 71.062 424.1Z" fill="#1F2937"/>
<path d="M141.462 424.1C138.533 427.03 138.533 431.778 141.462 434.707L149.73 442.975C151.195 444.439 153.115 445.171 155.034 445.171C156.953 445.171 158.873 444.439 160.338 442.975C163.267 440.045 163.267 435.297 160.338 432.368L152.07 424.1C149.14 421.172 144.392 421.172 141.462 424.1Z" fill="#1F2937"/>
<path d="M211.862 424.1C208.933 427.03 208.933 431.778 211.862 434.707L220.13 442.975C221.595 444.439 223.515 445.171 225.434 445.171C227.353 445.171 229.273 444.439 230.738 442.975C233.667 440.045 233.667 435.297 230.738 432.368L222.47 424.1C219.54 421.172 214.792 421.172 211.862 424.1Z" fill="#1F2937"/>
<path d="M295.834 445.171C297.753 445.171 299.673 444.439 301.138 442.975C304.067 440.045 304.067 435.297 301.138 432.368L292.87 424.1C289.94 421.172 285.192 421.172 282.263 424.1C279.334 427.03 279.334 431.778 282.263 434.707L290.531 442.975C291.995 444.438 293.915 445.171 295.834 445.171Z" fill="#1F2937"/>
<path d="M366.234 445.171C368.153 445.171 370.073 444.439 371.538 442.975C374.467 440.045 374.467 435.297 371.538 432.368L363.27 424.1C360.34 421.172 355.592 421.172 352.663 424.1C349.734 427.03 349.734 431.778 352.663 434.707L360.931 442.975C362.396 444.438 364.315 445.171 366.234 445.171Z" fill="#1F2937"/>
<path d="M436.635 445.171C438.554 445.171 440.474 444.439 441.939 442.975C444.868 440.045 444.868 435.297 441.939 432.368L433.671 424.1C430.741 421.172 425.993 421.172 423.064 424.1C420.135 427.03 420.135 431.778 423.064 434.707L431.332 442.975C432.796 444.438 434.716 445.171 436.635 445.171Z" fill="#1F2937"/>
</g>
<defs>
<clipPath id="clip0_156864_440">
<rect width="512" height="512" fill="white" transform="translate(0.5)"/>
</clipPath>
</defs>
</svg>
