<svg width="512" height="512" viewBox="0 0 512 512" fill="none" xmlns="http://www.w3.org/2000/svg">
<path d="M332.5 470.525H15V305.445H101V339.345H87.864C81.523 339.345 76.364 344.504 76.364 350.845V385.047C76.364 391.388 81.523 396.547 87.864 396.547H201.864C208.205 396.547 213.364 391.388 213.364 385.047V350.845C213.364 344.504 208.205 339.345 201.864 339.345H188.728V305.445H238.5C242.643 305.445 246 302.088 246 297.945C246 293.802 242.643 290.445 238.5 290.445H188.729V251.045C188.729 246.099 184.927 242.027 180.093 241.589V33.9746C180.093 29.8316 176.736 26.4746 172.593 26.4746C168.45 26.4746 165.093 29.8316 165.093 33.9746V54.5046H124.636V33.9746C124.636 29.8316 121.279 26.4746 117.136 26.4746C112.993 26.4746 109.636 29.8316 109.636 33.9746V241.589C104.802 242.027 101 246.099 101 251.045V290.445H12.5C5.607 290.445 0 296.052 0 302.945V473.025C0 479.918 5.607 485.525 12.5 485.525H332.5C336.643 485.525 340 482.168 340 478.025C340 473.882 336.643 470.525 332.5 470.525ZM165.093 166.984L133.845 131.856H165.093V166.984ZM155.884 179.199H124.636V144.071L155.884 179.199ZM165.093 194.199V229.329L133.844 194.199H165.093ZM124.636 116.856V81.7226L155.885 116.857L124.636 116.856ZM124.636 206.415L155.885 241.545H124.636V206.415ZM198.364 381.548H91.364V354.346H198.364V381.548ZM116 339.346V256.545H173.729V339.346H116ZM165.093 104.639L133.844 69.5046H165.093V104.639Z" fill="white"/>
<path d="M499.5 290.445H411V251.045C411 246.099 407.198 242.027 402.364 241.589V33.9746C402.364 29.8316 399.007 26.4746 394.864 26.4746C390.721 26.4746 387.364 29.8316 387.364 33.9746V54.5046H346.907V33.9746C346.907 29.8316 343.55 26.4746 339.407 26.4746C335.264 26.4746 331.907 29.8316 331.907 33.9746V241.589C327.073 242.027 323.271 246.099 323.271 251.045V290.445H273.5C269.357 290.445 266 293.802 266 297.945C266 302.088 269.357 305.445 273.5 305.445H323.271V339.345H310.135C303.794 339.345 298.635 344.504 298.635 350.845V385.047C298.635 391.388 303.794 396.547 310.135 396.547H424.135C430.476 396.547 435.635 391.388 435.635 385.047V350.845C435.635 344.504 430.476 339.345 424.135 339.345H411V305.445H497V470.525H367.5C363.357 470.525 360 473.882 360 478.025C360 482.168 363.357 485.525 367.5 485.525H499.5C506.393 485.525 512 479.918 512 473.025V302.945C512 296.053 506.393 290.445 499.5 290.445ZM387.364 166.984L356.116 131.856H387.364V166.984ZM378.155 179.199H346.907V144.071L378.155 179.199ZM387.364 194.199V229.329L356.115 194.199H387.364ZM346.907 116.856V81.7226L378.156 116.857L346.907 116.856ZM346.907 206.415L378.156 241.545H346.907V206.415ZM387.364 104.639L356.115 69.5046H387.364V104.639ZM420.636 381.548H313.636V354.346H420.636V381.548ZM338.271 339.346V256.545H396V339.346H338.271Z" fill="white"/>
<path d="M70.562 424.1C67.633 427.03 67.633 431.778 70.562 434.707L78.83 442.975C80.295 444.439 82.215 445.171 84.134 445.171C86.053 445.171 87.973 444.439 89.438 442.975C92.367 440.045 92.367 435.297 89.438 432.368L81.17 424.1C78.239 421.172 73.491 421.172 70.562 424.1Z" fill="white"/>
<path d="M140.962 424.1C138.033 427.03 138.033 431.778 140.962 434.707L149.23 442.975C150.695 444.439 152.615 445.171 154.534 445.171C156.453 445.171 158.373 444.439 159.838 442.975C162.767 440.045 162.767 435.297 159.838 432.368L151.57 424.1C148.64 421.172 143.892 421.172 140.962 424.1Z" fill="white"/>
<path d="M211.362 424.1C208.433 427.03 208.433 431.778 211.362 434.707L219.63 442.975C221.095 444.439 223.015 445.171 224.934 445.171C226.853 445.171 228.773 444.439 230.238 442.975C233.167 440.045 233.167 435.297 230.238 432.368L221.97 424.1C219.04 421.172 214.292 421.172 211.362 424.1Z" fill="white"/>
<path d="M295.334 445.171C297.253 445.171 299.173 444.439 300.638 442.975C303.567 440.045 303.567 435.297 300.638 432.368L292.37 424.1C289.44 421.172 284.692 421.172 281.763 424.1C278.834 427.03 278.834 431.778 281.763 434.707L290.031 442.975C291.495 444.438 293.415 445.171 295.334 445.171Z" fill="white"/>
<path d="M365.734 445.171C367.653 445.171 369.573 444.439 371.038 442.975C373.967 440.045 373.967 435.297 371.038 432.368L362.77 424.1C359.84 421.172 355.092 421.172 352.163 424.1C349.234 427.03 349.234 431.778 352.163 434.707L360.431 442.975C361.896 444.438 363.815 445.171 365.734 445.171Z" fill="white"/>
<path d="M436.135 445.171C438.054 445.171 439.974 444.439 441.439 442.975C444.368 440.045 444.368 435.297 441.439 432.368L433.171 424.1C430.241 421.172 425.493 421.172 422.564 424.1C419.635 427.03 419.635 431.778 422.564 434.707L430.832 442.975C432.296 444.438 434.216 445.171 436.135 445.171Z" fill="white"/>
</svg>
