<svg width="512" height="512" viewBox="0 0 512 512" fill="none" xmlns="http://www.w3.org/2000/svg">
<g clip-path="url(#clip0_156849_330)">
<path d="M488.447 0.0118771H23.5575C12.1177 -0.409113 -0.213978 10.4176 0.00701661 23.5613V188.934C0.00701661 193.076 3.36394 196.434 7.50684 196.434C11.6497 196.434 15.0067 193.076 15.0067 188.934V24.1283L248.501 230.14V422.932C248.501 427.074 251.858 430.432 256.001 430.432C260.144 430.432 263.501 427.074 263.501 422.932V234.256H496.995V488.45C496.995 493.165 493.16 497 488.446 497H263.501V458.475C263.501 454.333 260.144 450.975 256.001 450.975C251.858 450.975 248.501 454.333 248.501 458.475V497H23.5565C18.8416 497 15.0067 493.165 15.0067 488.45V226.757C15.0067 222.615 11.6497 219.257 7.50684 219.257C3.36394 219.257 0.00701661 222.615 0.00701661 226.757V488.45C0.00701661 501.436 10.5708 512 23.5565 512H488.446C501.43 512 511.995 501.436 511.995 488.45V23.5613C511.995 10.5756 501.431 0.0118771 488.447 0.0118771ZM496.995 23.5613V202.005L439.676 116.097C437.376 112.651 432.719 111.722 429.275 114.021C425.83 116.32 424.9 120.977 427.2 124.422L442.196 146.897H365.681L318.005 88.9408H403.525L407.781 95.3206C410.081 98.7666 414.738 99.6955 418.183 97.3966C421.628 95.0977 422.558 90.4408 420.258 86.9958L372.228 15.0105H488.445C493.16 15.0115 496.995 18.8464 496.995 23.5613ZM341.988 219.257L285.889 161.897H358.598L405.784 219.257H341.988ZM271.22 146.897L214.537 88.9408H298.581L346.258 146.897H271.22ZM111.137 88.9418H193.555L250.237 146.898H176.826L111.137 88.9418ZM237.764 15.0115L286.242 73.9421H199.867L142.233 15.0115H237.764ZM393.517 73.9421H305.665L257.187 15.0115H354.197L393.517 73.9421ZM121.251 15.0115L178.886 73.9421H94.1378L27.3454 15.0115H121.251ZM258.837 219.257L193.825 161.897H264.908L321.007 219.257H258.837ZM425.206 219.257L378.02 161.897H452.203L490.476 219.257H425.206Z" fill="white"/>
</g>
<defs>
<clipPath id="clip0_156849_330">
<rect width="512" height="512" fill="white"/>
</clipPath>
</defs>
</svg>
