<svg width="513" height="512" viewBox="0 0 513 512" fill="none" xmlns="http://www.w3.org/2000/svg">
<g clip-path="url(#clip0_156864_454)">
<mask id="mask0_156864_454" style="mask-type:luminance" maskUnits="userSpaceOnUse" x="0" y="0" width="513" height="512">
<path d="M512.5 0H0.5V512H512.5V0Z" fill="white"/>
</mask>
<g mask="url(#mask0_156864_454)">
<path d="M488.947 0.0118771H24.0576C12.6178 -0.409113 0.286083 10.4176 0.507078 23.5613V188.934C0.507078 193.076 3.864 196.434 8.0069 196.434C12.1498 196.434 15.5068 193.076 15.5068 188.934V24.1283L249.001 230.14V422.932C249.001 427.074 252.358 430.432 256.501 430.432C260.644 430.432 264.001 427.074 264.001 422.932V234.256H497.495V488.45C497.495 493.165 493.66 497 488.946 497H264.001V458.475C264.001 454.333 260.644 450.975 256.501 450.975C252.358 450.975 249.001 454.333 249.001 458.475V497H24.0566C19.3417 497 15.5068 493.165 15.5068 488.45V226.757C15.5068 222.615 12.1498 219.257 8.0069 219.257C3.864 219.257 0.507078 222.615 0.507078 226.757V488.45C0.507078 501.436 11.0709 512 24.0566 512H488.946C501.93 512 512.495 501.436 512.495 488.45V23.5613C512.495 10.5756 501.931 0.0118771 488.947 0.0118771ZM497.495 23.5613V202.005L440.176 116.097C437.876 112.651 433.219 111.722 429.775 114.021C426.33 116.32 425.4 120.977 427.7 124.422L442.696 146.897H366.181L318.505 88.9408H404.025L408.281 95.3206C410.581 98.7666 415.238 99.6955 418.683 97.3966C422.128 95.0977 423.058 90.4408 420.758 86.9958L372.728 15.0105H488.945C493.66 15.0115 497.495 18.8464 497.495 23.5613ZM342.488 219.257L286.389 161.897H359.098L406.284 219.257H342.488ZM271.72 146.897L215.037 88.9408H299.081L346.758 146.897H271.72ZM111.637 88.9418H194.055L250.737 146.898H177.326L111.637 88.9418ZM238.264 15.0115L286.742 73.9421H200.367L142.733 15.0115H238.264ZM394.017 73.9421H306.165L257.687 15.0115H354.697L394.017 73.9421ZM121.751 15.0115L179.386 73.9421H94.6379L27.8455 15.0115H121.751ZM259.337 219.257L194.325 161.897H265.408L321.507 219.257H259.337ZM425.706 219.257L378.52 161.897H452.703L490.976 219.257H425.706Z" fill="#1F2937"/>
</g>
</g>
<defs>
<clipPath id="clip0_156864_454">
<rect width="512" height="512" fill="white" transform="translate(0.5)"/>
</clipPath>
</defs>
</svg>
