<svg width="513" height="512" viewBox="0 0 513 512" fill="none" xmlns="http://www.w3.org/2000/svg">
<g clip-path="url(#clip0_156864_449)">
<path d="M413.249 0H99.7511C95.6011 0 92.2361 3.365 92.2361 7.515V296.98C92.2361 301.13 95.6011 304.495 99.7511 304.495C103.901 304.495 107.266 301.131 107.266 296.98V15.029H405.735V496.97H388.777V395.38C388.777 391.23 385.412 387.865 381.262 387.865C377.112 387.865 373.747 391.23 373.747 395.38V496.97H139.253V47.017H373.747V365.322C373.747 369.472 377.111 372.837 381.262 372.837C385.412 372.837 388.777 369.472 388.777 365.322V39.502C388.777 35.352 385.412 31.987 381.262 31.987H131.738C127.588 31.987 124.223 35.351 124.223 39.502V496.971H107.265V327.039C107.265 322.889 103.9 319.524 99.7501 319.524C95.6001 319.524 92.2351 322.888 92.2351 327.039V504.485C92.2351 508.635 95.6001 512 99.7501 512H413.248C417.398 512 420.763 508.635 420.763 504.485V7.515C420.764 3.365 417.399 0 413.249 0Z" fill="#1F2937"/>
<path d="M173.495 167.6C169.345 167.6 165.98 170.965 165.98 175.115V247.007C165.98 251.157 169.345 254.522 173.495 254.522H339.506C343.656 254.522 347.021 251.157 347.021 247.007V80.265C347.021 76.115 343.656 72.75 339.506 72.75H173.495C169.345 72.75 165.98 76.114 165.98 80.265V145.056C165.98 149.206 169.345 152.571 173.495 152.571C177.645 152.571 181.01 149.206 181.01 145.056V87.78H331.991V239.492H181.009V175.114C181.009 170.964 177.645 167.6 173.495 167.6Z" fill="#1F2937"/>
<path d="M165.98 463.722C165.98 467.872 169.345 471.237 173.495 471.237H339.506C343.656 471.237 347.021 467.873 347.021 463.722V296.98C347.021 292.83 343.656 289.465 339.506 289.465H173.495C169.345 289.465 165.98 292.829 165.98 296.98V463.722ZM181.009 304.495H331.99V456.207H181.009V304.495Z" fill="#1F2937"/>
<path d="M366.818 271.994C366.818 264.172 360.454 257.808 352.632 257.808C347.572 257.808 343.134 260.48 340.622 264.479H322.69C318.54 264.479 315.175 267.843 315.175 271.994C315.175 276.144 318.54 279.509 322.69 279.509H340.622C343.134 283.508 347.571 286.18 352.632 286.18C360.454 286.18 366.818 279.816 366.818 271.994Z" fill="#1F2937"/>
</g>
<defs>
<clipPath id="clip0_156864_449">
<rect width="512" height="512" fill="white" transform="translate(0.5)"/>
</clipPath>
</defs>
</svg>
