<svg width="94" height="92" viewBox="0 0 94 92" fill="none" xmlns="http://www.w3.org/2000/svg">
<rect width="94" height="92" rx="19" fill="#414871"/>
<path d="M18.1826 67.7064L18.1826 55.4129H19.4324L20 54.5L20.9996 54.2016C21.8615 53.5353 22.5782 52.9902 22.5922 52.9902C22.6063 52.9902 22.6178 59.0593 22.6178 66.4772V79.9641L20.4002 79.9821L18.1826 80L18.1826 67.7064ZM40.84 59.4235L40.8421 38.8796L42.9706 37.2427C44.1413 36.3424 45.1248 35.5959 45.1561 35.5839C45.192 35.5701 45.213 43.7753 45.213 57.7647V79.9673H43.0254H40.8378L40.84 59.4235ZM18.1826 29.0247V11.0841H20.0318C21.0489 11.0841 22.0468 11.0652 22.2494 11.0421L22.6178 11V27.2092L22.5922 52.9902L20.9996 54.2016C20.2354 54.6019 20.3863 54.5398 19.4324 55.4129H18.1826V29.0247ZM40.8378 19.9292V11.0841H42.657C43.6576 11.0841 44.642 11.0652 44.8446 11.0421L45.213 11L45.2095 18.1628L45.1561 35.5839L43.3416 37.2427C42.1689 38.179 40.8708 38.8676 40.8421 38.8796C40.8421 38.8796 40.8378 24.9182 40.8378 19.9292Z" fill="white"/>
<path d="M86.501 54.9965L90 54.9867L89.7797 54.8401C89.6586 54.7595 88.8355 54.1917 87.9507 53.5782C87.0658 52.9647 85.5858 51.9388 84.6617 51.2983C83.7377 50.6579 82.9817 50.1176 82.9817 50.0978C82.9817 50.0779 82.9679 50.066 82.9511 50.0712C82.92 50.0809 82.5495 49.8263 76.4038 45.5727C69.586 40.854 67.6462 39.5082 67.5858 39.4552C67.5235 39.4004 64.6596 37.4141 64.5421 37.3441C64.4602 37.2953 62.7229 36.094 57.0776 32.1823C54.6023 30.4672 52.5387 29.0414 52.492 29.0139C52.4152 28.9688 52.3193 29.0121 51.4941 29.4642C49.5057 30.5537 43.9199 33.6175 40.8469 35.3042C39.682 35.9436 37.6934 37.0343 36.4277 37.7281C35.162 38.4219 33.8515 39.141 33.5155 39.3262C32.9204 39.6541 29.4063 41.5818 27.8541 42.4317C27.4285 42.6648 25.6048 43.6655 23.8015 44.6554C21.9982 45.6454 20.0737 46.7011 19.5249 47.0015C18.9761 47.3019 16.9233 48.428 14.9632 49.5039C13.0031 50.5797 10.9859 51.6865 10.4805 51.9633C9.9752 52.2402 8.53535 53.0295 7.28088 53.7173L5 54.9679L9.36557 54.9777L13.7311 54.9875L16.1902 53.7319C17.5426 53.0414 19.5565 52.0132 20.6653 51.447C21.7742 50.8808 23.8086 49.8419 25.1863 49.1382C26.564 48.4345 28.7176 47.3351 29.972 46.695C31.2265 46.0549 32.8119 45.2458 33.4951 44.897C34.1784 44.5482 35.5439 43.8513 36.5295 43.3483C37.5152 42.8453 38.6515 42.2644 39.0547 42.0575C39.458 41.8506 40.6951 41.2184 41.804 40.6527C46.766 38.1209 48.5132 37.229 50.398 36.2656C51.5068 35.6988 52.4328 35.2349 52.4558 35.2346C52.4787 35.2343 53.9449 36.2002 55.7141 37.3811C62.755 42.0805 64.5717 43.2954 66.0178 44.2714C66.8466 44.8308 67.5522 45.3008 67.5858 45.3159C67.6571 45.3479 77.0676 51.6227 80.9754 54.2439L82.076 54.9822L82.539 54.9943C82.7937 55.0009 84.5766 55.0019 86.501 54.9965ZM23.0684 51.317C23.0684 51.309 23.0363 51.2787 22.9971 51.2496C22.9325 51.2018 22.9311 51.2031 22.9817 51.2642C23.0349 51.3283 23.0684 51.3487 23.0684 51.317Z" fill="#FF5500"/>
<path d="M46.496 80.0001V78.2721L51.488 77.7441C51.584 74.7041 51.632 70.0641 51.632 63.8241V61.1841C51.632 54.9441 51.584 50.2881 51.488 47.2161L46.496 46.6881V45.0081H60.32C64.48 45.0081 67.664 45.9521 69.872 47.8401C71.984 49.6321 73.04 52.1121 73.04 55.2801C73.04 58.4481 71.936 60.9441 69.728 62.7681C67.232 64.8161 63.536 65.8401 58.64 65.8401H55.616C55.616 71.0881 55.664 75.0561 55.76 77.7441L60.896 78.2721V80.0001H46.496ZM55.616 63.9201H59.072C65.568 63.9201 68.816 61.0401 68.816 55.2801C68.816 49.7441 65.728 46.9761 59.552 46.9761H55.76C55.664 50.0481 55.616 54.7841 55.616 61.1841V63.9201Z" fill="white"/>
</svg>
