<svg width="513" height="512" viewBox="0 0 513 512" fill="none" xmlns="http://www.w3.org/2000/svg">
<g clip-path="url(#clip0_156864_465)">
<path d="M512.346 436.318L493.628 345.402L489.678 326.218C488.844 322.161 484.875 319.546 480.82 320.385C476.763 321.22 474.151 325.186 474.987 329.243L477.081 339.414H404.17C401.38 317.933 397.355 286.949 394.309 263.499H461.452L469.841 304.243C470.676 308.3 474.643 310.918 478.699 310.076C482.756 309.241 485.368 305.275 484.532 301.218L474.911 254.487L456.193 163.571L437.475 72.6559C436.758 69.1709 433.688 66.6689 430.129 66.6689H82.8708C79.3118 66.6689 76.2428 69.1709 75.5248 72.6559L56.8068 163.571L47.7348 207.635C46.8998 211.693 49.5108 215.658 53.5678 216.493C57.6258 217.331 61.5908 214.716 62.4258 210.66L70.2648 172.583H130.499C127.543 195.34 123.585 225.808 120.638 248.499H54.6368L57.2798 235.66C58.1148 231.602 55.5038 227.637 51.4468 226.802C47.3878 225.963 43.4238 228.577 42.5888 232.635L38.0898 254.487L19.3718 345.402L0.653834 436.318C0.198834 438.526 0.761834 440.822 2.18583 442.569C3.60983 444.317 5.74483 445.331 7.99883 445.331H504.999C507.253 445.331 509.388 444.317 510.812 442.569C512.238 440.822 512.8 438.526 512.346 436.318ZM157.436 81.6689H213.918L211.192 157.584H147.575C150.621 134.134 154.645 103.155 157.436 81.6689ZM355.563 81.6689C358.353 103.15 362.378 134.134 365.424 157.584H301.807L299.081 81.6689H355.563ZM145.627 172.584H210.654L207.928 248.5H135.766C138.722 225.743 142.679 195.275 145.627 172.584ZM367.373 172.584C370.323 195.296 374.286 225.802 377.234 248.5H305.072L302.346 172.584H367.373ZM287.337 172.584L290.063 248.5H222.938L225.664 172.584H287.337ZM133.817 263.5H207.389L204.663 339.415H123.955C127.002 315.965 131.026 284.986 133.817 263.5ZM222.399 263.5H290.601L293.327 339.415H219.674L222.399 263.5ZM308.336 339.415L305.61 263.5H379.182C381.972 284.981 385.997 315.965 389.043 339.415H308.336ZM286.798 157.584H226.202L228.928 81.6689H284.072L286.798 157.584ZM122.008 354.415H204.126L201.4 430.331H112.147C115.103 407.574 119.06 377.106 122.008 354.415ZM219.135 354.415H293.865L296.591 430.331H216.41L219.135 354.415ZM308.875 354.415H390.993C393.943 377.127 397.906 407.633 400.854 430.331H311.6L308.875 354.415ZM392.36 248.5C389.41 225.788 385.447 195.282 382.499 172.584H442.733L458.363 248.5H392.36ZM439.645 157.584H380.551C377.761 136.103 373.736 105.119 370.69 81.6689H424.016L439.645 157.584ZM88.9838 81.6689H142.31C139.264 105.119 135.24 136.098 132.449 157.584H73.3548L88.9838 81.6689ZM51.5488 263.5H118.692C115.646 286.95 111.622 317.929 108.831 339.415H35.9188L51.5488 263.5ZM32.8308 354.415H106.882C103.926 377.172 99.9678 407.64 97.0208 430.331H17.2008L32.8308 354.415ZM415.979 430.331C413.029 407.619 409.066 377.113 406.118 354.415H480.169L495.799 430.331H415.979Z" fill="#1F2937"/>
</g>
<defs>
<clipPath id="clip0_156864_465">
<rect width="512" height="512" fill="white" transform="translate(0.5)"/>
</clipPath>
</defs>
</svg>
