<svg width="684" height="683" viewBox="0 0 684 683" fill="none" xmlns="http://www.w3.org/2000/svg">
<g clip-path="url(#clip0_156864_460)">
<path d="M666.865 174.547L563.542 141.875C558.245 140.198 552.604 143.135 550.927 148.427C549.255 153.719 552.188 159.365 557.479 161.036L660.802 193.713C662.156 194.141 663.068 195.38 663.068 196.802V582.708C663.068 586.213 660.219 589.062 656.719 589.062H605.646V226.5C605.646 214.307 595.729 204.391 583.536 204.391H97.5938C85.401 204.391 75.4844 214.307 75.4844 226.5V589.062H26.9531C23.4479 589.062 20.599 586.213 20.599 582.708V196.802C20.599 195.385 21.5104 194.141 22.8646 193.713L337.625 94.0885C340.38 93.2187 343.292 93.2187 346.042 94.0885L514.083 147.302C519.375 148.979 525.021 146.047 526.698 140.755C528.375 135.463 525.443 129.812 520.151 128.141L352.109 74.927C345.385 72.802 338.281 72.802 331.562 74.927L16.8021 174.552C7.05208 177.635 0.5 186.578 0.5 196.807V582.713C0.5 597.297 12.3646 609.161 26.9531 609.161H656.714C671.302 609.161 683.167 597.297 683.167 582.713V196.807C683.167 186.578 676.615 177.635 666.865 174.547ZM185.214 435.901H357.089C362.641 435.901 367.141 431.401 367.141 425.849C367.141 420.302 362.641 415.802 357.089 415.802H212.995L222.568 374.838C225.323 363.026 235.729 354.776 247.859 354.776H431.12C443.25 354.776 453.651 363.026 456.411 374.838L465.979 415.802H403.547C397.995 415.802 393.495 420.302 393.495 425.849C393.495 431.401 397.995 435.901 403.547 435.901H495.099C499.906 435.901 503.812 439.807 503.812 444.609V540.625C503.812 545.427 499.906 549.338 495.099 549.338H185.214C179.672 549.338 175.161 544.828 175.161 539.286V445.953C175.161 440.406 179.672 435.901 185.214 435.901ZM463.74 588.969H441.068C438.849 588.969 437.047 587.167 437.047 584.948V569.437H468.427V584.281C468.427 586.865 466.323 588.969 463.74 588.969ZM210.547 569.437H241.927V584.276C241.927 586.865 239.823 588.969 237.24 588.969H214.568C212.349 588.969 210.547 587.167 210.547 584.948V569.437ZM262.031 584.276V569.437H416.948V584.948C416.948 586.354 417.089 587.719 417.323 589.062H261.557C261.859 587.51 262.031 585.917 262.031 584.276ZM488.057 589.062C488.359 587.51 488.531 585.917 488.531 584.276V569.437H495.099C510.99 569.437 523.911 556.51 523.911 540.625V444.609C523.911 431.177 514.656 419.891 502.193 416.719H521.995C527.547 416.719 532.047 412.219 532.047 406.667C532.047 401.12 527.547 396.62 521.995 396.62H482.141L475.984 370.266C471.089 349.312 452.635 334.672 431.12 334.672H247.859C226.339 334.672 207.891 349.312 202.995 370.266L196.839 396.62H156.979C151.427 396.62 146.927 401.12 146.927 406.667C146.927 412.219 151.427 416.719 156.979 416.719H177.823C164.76 420.026 155.062 431.875 155.062 445.948V539.286C155.062 555.911 168.589 569.437 185.214 569.437H190.448V584.948C190.448 586.354 190.594 587.719 190.823 589.062H95.5833V307.062H189.698C195.245 307.062 199.745 302.562 199.745 297.01C199.745 291.458 195.245 286.958 189.698 286.958H95.5833V226.5C95.5833 225.391 96.4844 224.49 97.5938 224.49H583.531C584.641 224.49 585.542 225.391 585.542 226.5V286.958H237.599C232.047 286.958 227.547 291.458 227.547 297.01C227.547 302.562 232.047 307.062 237.599 307.062H585.542V589.062H488.057Z" fill="#1F2937"/>
<path d="M222.453 519.859C242.11 519.859 258.104 503.87 258.104 484.214C258.104 464.552 242.11 448.562 222.453 448.562C202.797 448.562 186.802 464.552 186.802 484.214C186.802 503.87 202.797 519.859 222.453 519.859ZM222.453 468.661C231.026 468.661 238.005 475.635 238.005 484.214C238.005 492.786 231.026 499.76 222.453 499.76C213.88 499.76 206.906 492.786 206.906 484.214C206.906 475.635 213.88 468.661 222.453 468.661Z" fill="#1F2937"/>
<path d="M456.521 519.859C476.182 519.859 492.172 503.87 492.172 484.214C492.172 464.552 476.177 448.562 456.521 448.562C436.864 448.562 420.87 464.552 420.87 484.214C420.87 503.87 436.864 519.859 456.521 519.859ZM456.521 468.661C465.094 468.661 472.073 475.635 472.073 484.214C472.073 492.786 465.094 499.76 456.521 499.76C447.948 499.76 440.974 492.786 440.974 484.214C440.974 475.635 447.948 468.661 456.521 468.661Z" fill="#1F2937"/>
<path d="M283.443 536.031H395.531C403.292 536.031 409.599 529.719 409.599 521.958V497.667C409.599 489.906 403.292 483.594 395.531 483.594H283.443C275.688 483.594 269.375 489.906 269.375 497.667V521.958C269.375 529.714 275.688 536.031 283.443 536.031ZM289.474 503.698H389.5V515.927H289.474V503.698Z" fill="#1F2937"/>
</g>
<defs>
<clipPath id="clip0_156864_460">
<rect width="682.667" height="682.667" fill="white" transform="translate(0.5)"/>
</clipPath>
</defs>
</svg>
