<svg width="512" height="512" viewBox="0 0 512 512" fill="none" xmlns="http://www.w3.org/2000/svg">
<g clip-path="url(#clip0_156849_343)">
<path d="M181.45 180.667H330.55C339.253 180.667 346.334 173.587 346.334 164.884V140.034C346.334 138.28 345.719 136.581 344.596 135.233L304.917 87.619V15.5C304.917 6.953 297.964 0 289.417 0H222.584C214.037 0 207.084 6.953 207.084 15.5V87.618L167.405 135.232C166.282 136.58 165.667 138.279 165.667 140.033V164.883C165.666 173.586 172.747 180.667 181.45 180.667ZM330.55 165.667H181.45C181.018 165.667 180.666 165.315 180.666 164.884V147.534H331.333V164.884C331.333 165.315 330.982 165.667 330.55 165.667ZM218.096 97.834H293.905L322.821 132.534H189.179L218.096 97.834ZM222.083 15.5C222.083 15.224 222.307 15 222.583 15H289.416C289.692 15 289.916 15.224 289.916 15.5V82.834H222.083V15.5Z" fill="white"/>
<path d="M314.267 381.033H197.733C189.186 381.033 182.233 387.986 182.233 396.533V463.367C182.233 471.914 189.186 478.867 197.733 478.867H314.266C322.813 478.867 329.766 471.914 329.766 463.367V396.533C329.767 387.986 322.813 381.033 314.267 381.033ZM314.767 463.367C314.767 463.643 314.543 463.867 314.267 463.867H197.733C197.457 463.867 197.233 463.643 197.233 463.367V396.533C197.233 396.257 197.457 396.033 197.733 396.033H314.266C314.542 396.033 314.766 396.257 314.766 396.533V463.367H314.767Z" fill="white"/>
<path d="M189.733 329.767H198.016C202.158 329.767 205.516 326.409 205.516 322.267C205.516 318.125 202.158 314.767 198.016 314.767H189.733C185.591 314.767 182.233 318.125 182.233 322.267C182.233 326.409 185.591 329.767 189.733 329.767Z" fill="white"/>
<path d="M251.858 329.767H260.141C264.283 329.767 267.641 326.409 267.641 322.267C267.641 318.125 264.283 314.767 260.141 314.767H251.858C247.716 314.767 244.358 318.125 244.358 322.267C244.358 326.409 247.716 329.767 251.858 329.767Z" fill="white"/>
<path d="M313.983 329.767H322.266C326.408 329.767 329.766 326.409 329.766 322.267C329.766 318.125 326.408 314.767 322.266 314.767H313.983C309.841 314.767 306.483 318.125 306.483 322.267C306.483 326.409 309.841 329.767 313.983 329.767Z" fill="white"/>
<path d="M289.133 414.167H222.866C218.724 414.167 215.366 417.525 215.366 421.667C215.366 425.809 218.724 429.167 222.866 429.167H289.133C293.275 429.167 296.633 425.809 296.633 421.667C296.633 417.524 293.275 414.167 289.133 414.167Z" fill="white"/>
<path d="M90.333 314.767H73.767C69.625 314.767 66.267 318.125 66.267 322.267C66.267 326.409 69.625 329.767 73.767 329.767H90.334C94.476 329.767 97.834 326.409 97.834 322.267C97.833 318.125 94.476 314.767 90.333 314.767Z" fill="white"/>
<path d="M33.133 413.383V446.516C33.133 450.658 36.491 454.016 40.633 454.016C44.775 454.016 48.133 450.658 48.133 446.516V413.383C48.133 409.241 44.775 405.883 40.633 405.883C36.491 405.883 33.133 409.241 33.133 413.383Z" fill="white"/>
<path d="M496.5 281.633H97.833V230.866C97.833 222.319 90.88 215.366 82.333 215.366H65.2C56.653 215.366 49.7 222.319 49.7 230.866V281.633H15.5C6.953 281.633 0 288.586 0 297.133V355.4V496.5C0 505.047 6.953 512 15.5 512H67.333C71.475 512 74.833 508.642 74.833 504.5C74.833 500.358 71.475 497 67.333 497H15.5C15.224 497 15 496.776 15 496.5V362.9H149.1V497H97C92.858 497 89.5 500.358 89.5 504.5C89.5 508.642 92.858 512 97 512H496.5C505.047 512 512 505.047 512 496.5V355.4V297.133C512 288.586 505.047 281.633 496.5 281.633ZM497 297.133V347.9H362.9V296.633H496.5C496.776 296.633 497 296.857 497 297.133ZM347.9 347.9H164.1V296.633H347.9V347.9ZM64.7 230.867C64.7 230.591 64.924 230.367 65.2 230.367H82.333C82.609 230.367 82.833 230.591 82.833 230.867V281.634H64.7V230.867ZM15 347.9V297.133C15 296.857 15.224 296.633 15.5 296.633H149.1V347.9H15ZM164.1 362.9H347.9V497H164.1V362.9ZM497 496.5C497 496.776 496.776 497 496.5 497H362.9V362.9H497V496.5Z" fill="white"/>
<path d="M421.666 329.767H438.233C442.375 329.767 445.733 326.409 445.733 322.267C445.733 318.125 442.375 314.767 438.233 314.767H421.666C417.524 314.767 414.166 318.125 414.166 322.267C414.166 326.409 417.524 329.767 421.666 329.767Z" fill="white"/>
<path d="M388.533 454.017C392.675 454.017 396.033 450.659 396.033 446.517V413.384C396.033 409.242 392.675 405.884 388.533 405.884C384.391 405.884 381.033 409.242 381.033 413.384V446.517C381.033 450.659 384.391 454.017 388.533 454.017Z" fill="white"/>
<path d="M15.5 130.967H132.033C140.58 130.967 147.533 124.014 147.533 115.467V15.5C147.533 6.953 140.58 0 132.033 0H15.5C6.953 0 0 6.953 0 15.5V115.467C0 124.014 6.953 130.967 15.5 130.967ZM15 15.5C15 15.224 15.224 15 15.5 15H132.033C132.309 15 132.533 15.224 132.533 15.5V115.467C132.533 115.743 132.309 115.967 132.033 115.967H15.5C15.224 115.967 15 115.743 15 115.467V15.5Z" fill="white"/>
<path d="M65.483 97.834H82.05C86.192 97.834 89.55 94.476 89.55 90.334C89.55 86.192 86.192 82.834 82.05 82.834H65.483C61.341 82.834 57.983 86.192 57.983 90.334C57.983 94.476 61.341 97.834 65.483 97.834Z" fill="white"/>
<path d="M496.5 0H379.967C371.42 0 364.467 6.953 364.467 15.5V33.917C364.467 38.059 367.825 41.417 371.967 41.417C376.109 41.417 379.467 38.059 379.467 33.917V15.5C379.467 15.224 379.691 15 379.967 15H496.5C496.776 15 497 15.224 497 15.5V115.467C497 115.743 496.776 115.967 496.5 115.967H379.967C379.691 115.967 379.467 115.743 379.467 115.467V63.917C379.467 59.775 376.109 56.417 371.967 56.417C367.825 56.417 364.467 59.775 364.467 63.917V115.467C364.467 124.014 371.42 130.967 379.967 130.967H496.5C505.047 130.967 512 124.014 512 115.467V15.5C512 6.953 505.047 0 496.5 0Z" fill="white"/>
<path d="M446.517 97.834C450.659 97.834 454.017 94.476 454.017 90.334C454.017 86.192 450.659 82.834 446.517 82.834H429.95C425.808 82.834 422.45 86.192 422.45 90.334C422.45 94.476 425.808 97.834 429.95 97.834H446.517Z" fill="white"/>
<path d="M504.5 182.233H371.967C367.825 182.233 364.467 185.591 364.467 189.733C364.467 193.875 367.825 197.233 371.967 197.233H397.6V216.569C387.992 219.729 381.033 228.781 381.033 239.432C381.033 252.702 391.829 263.499 405.1 263.499C418.37 263.499 429.166 252.703 429.166 239.432C429.166 228.78 422.207 219.728 412.6 216.569V197.233H463.867V216.569C454.259 219.729 447.3 228.781 447.3 239.432C447.3 252.702 458.096 263.499 471.367 263.499C484.637 263.499 495.433 252.703 495.433 239.432C495.433 228.78 488.474 219.728 478.867 216.569V197.233H504.5C508.642 197.233 512 193.875 512 189.733C512 185.591 508.642 182.233 504.5 182.233ZM405.1 248.5C400.1 248.5 396.033 244.433 396.033 239.433C396.033 234.434 400.1 230.367 405.1 230.367C410.099 230.367 414.166 234.434 414.166 239.433C414.166 244.433 410.099 248.5 405.1 248.5ZM471.367 248.5C466.368 248.5 462.3 244.433 462.3 239.433C462.3 234.434 466.367 230.367 471.367 230.367C476.366 230.367 480.433 234.434 480.433 239.433C480.433 244.433 476.366 248.5 471.367 248.5Z" fill="white"/>
</g>
<defs>
<clipPath id="clip0_156849_343">
<rect width="512" height="512" fill="white"/>
</clipPath>
</defs>
</svg>
