<svg width="513" height="512" viewBox="0 0 513 512" fill="none" xmlns="http://www.w3.org/2000/svg">
<g clip-path="url(#clip0_156864_469)">
<mask id="mask0_156864_469" style="mask-type:luminance" maskUnits="userSpaceOnUse" x="0" y="0" width="513" height="512">
<path d="M512.5 0H0.5V512H512.5V0Z" fill="white"/>
</mask>
<g mask="url(#mask0_156864_469)">
<path d="M181.95 180.667H331.05C339.753 180.667 346.834 173.587 346.834 164.884V140.034C346.834 138.28 346.219 136.581 345.096 135.233L305.417 87.619V15.5C305.417 6.953 298.464 0 289.917 0H223.084C214.537 0 207.584 6.953 207.584 15.5V87.618L167.905 135.232C166.782 136.58 166.167 138.279 166.167 140.033V164.883C166.166 173.586 173.247 180.667 181.95 180.667ZM331.05 165.667H181.95C181.518 165.667 181.166 165.315 181.166 164.884V147.534H331.833V164.884C331.833 165.315 331.482 165.667 331.05 165.667ZM218.596 97.834H294.405L323.321 132.534H189.679L218.596 97.834ZM222.583 15.5C222.583 15.224 222.807 15 223.083 15H289.916C290.192 15 290.416 15.224 290.416 15.5V82.834H222.583V15.5Z" fill="#1F2937"/>
<path d="M314.767 381.033H198.233C189.686 381.033 182.733 387.986 182.733 396.533V463.367C182.733 471.914 189.686 478.867 198.233 478.867H314.766C323.313 478.867 330.266 471.914 330.266 463.367V396.533C330.267 387.986 323.313 381.033 314.767 381.033ZM315.267 463.367C315.267 463.643 315.043 463.867 314.767 463.867H198.233C197.957 463.867 197.733 463.643 197.733 463.367V396.533C197.733 396.257 197.957 396.033 198.233 396.033H314.766C315.042 396.033 315.266 396.257 315.266 396.533V463.367H315.267Z" fill="#1F2937"/>
<path d="M190.233 329.767H198.516C202.658 329.767 206.016 326.409 206.016 322.267C206.016 318.125 202.658 314.767 198.516 314.767H190.233C186.091 314.767 182.733 318.125 182.733 322.267C182.733 326.409 186.091 329.767 190.233 329.767Z" fill="#1F2937"/>
<path d="M252.358 329.767H260.641C264.783 329.767 268.141 326.409 268.141 322.267C268.141 318.125 264.783 314.767 260.641 314.767H252.358C248.216 314.767 244.858 318.125 244.858 322.267C244.858 326.409 248.216 329.767 252.358 329.767Z" fill="#1F2937"/>
<path d="M314.483 329.767H322.766C326.908 329.767 330.266 326.409 330.266 322.267C330.266 318.125 326.908 314.767 322.766 314.767H314.483C310.341 314.767 306.983 318.125 306.983 322.267C306.983 326.409 310.341 329.767 314.483 329.767Z" fill="#1F2937"/>
<path d="M289.633 414.167H223.366C219.224 414.167 215.866 417.525 215.866 421.667C215.866 425.809 219.224 429.167 223.366 429.167H289.633C293.775 429.167 297.133 425.809 297.133 421.667C297.133 417.524 293.775 414.167 289.633 414.167Z" fill="#1F2937"/>
<path d="M90.8331 314.767H74.2671C70.1251 314.767 66.7671 318.125 66.7671 322.267C66.7671 326.409 70.1251 329.767 74.2671 329.767H90.8341C94.9761 329.767 98.3341 326.409 98.3341 322.267C98.3331 318.125 94.9761 314.767 90.8331 314.767Z" fill="#1F2937"/>
<path d="M33.6331 413.383V446.516C33.6331 450.658 36.9911 454.016 41.1331 454.016C45.2751 454.016 48.6331 450.658 48.6331 446.516V413.383C48.6331 409.241 45.2751 405.883 41.1331 405.883C36.9911 405.883 33.6331 409.241 33.6331 413.383Z" fill="#1F2937"/>
<path d="M497 281.633H98.333V230.866C98.333 222.319 91.38 215.366 82.833 215.366H65.7C57.153 215.366 50.2 222.319 50.2 230.866V281.633H16C7.453 281.633 0.5 288.586 0.5 297.133V355.4V496.5C0.5 505.047 7.453 512 16 512H67.833C71.975 512 75.333 508.642 75.333 504.5C75.333 500.358 71.975 497 67.833 497H16C15.724 497 15.5 496.776 15.5 496.5V362.9H149.6V497H97.5C93.358 497 90 500.358 90 504.5C90 508.642 93.358 512 97.5 512H497C505.547 512 512.5 505.047 512.5 496.5V355.4V297.133C512.5 288.586 505.547 281.633 497 281.633ZM497.5 297.133V347.9H363.4V296.633H497C497.276 296.633 497.5 296.857 497.5 297.133ZM348.4 347.9H164.6V296.633H348.4V347.9ZM65.2 230.867C65.2 230.591 65.424 230.367 65.7 230.367H82.833C83.109 230.367 83.333 230.591 83.333 230.867V281.634H65.2V230.867ZM15.5 347.9V297.133C15.5 296.857 15.724 296.633 16 296.633H149.6V347.9H15.5ZM164.6 362.9H348.4V497H164.6V362.9ZM497.5 496.5C497.5 496.776 497.276 497 497 497H363.4V362.9H497.5V496.5Z" fill="#1F2937"/>
<path d="M422.166 329.767H438.733C442.875 329.767 446.233 326.409 446.233 322.267C446.233 318.125 442.875 314.767 438.733 314.767H422.166C418.024 314.767 414.666 318.125 414.666 322.267C414.666 326.409 418.024 329.767 422.166 329.767Z" fill="#1F2937"/>
<path d="M389.033 454.017C393.175 454.017 396.533 450.659 396.533 446.517V413.384C396.533 409.242 393.175 405.884 389.033 405.884C384.891 405.884 381.533 409.242 381.533 413.384V446.517C381.533 450.659 384.891 454.017 389.033 454.017Z" fill="#1F2937"/>
<path d="M16 130.967H132.533C141.08 130.967 148.033 124.014 148.033 115.467V15.5C148.033 6.953 141.08 0 132.533 0H16C7.453 0 0.5 6.953 0.5 15.5V115.467C0.5 124.014 7.453 130.967 16 130.967ZM15.5 15.5C15.5 15.224 15.724 15 16 15H132.533C132.809 15 133.033 15.224 133.033 15.5V115.467C133.033 115.743 132.809 115.967 132.533 115.967H16C15.724 115.967 15.5 115.743 15.5 115.467V15.5Z" fill="#1F2937"/>
<path d="M65.9829 97.834H82.5499C86.6919 97.834 90.0499 94.476 90.0499 90.334C90.0499 86.192 86.6919 82.834 82.5499 82.834H65.9829C61.8409 82.834 58.4829 86.192 58.4829 90.334C58.4829 94.476 61.8409 97.834 65.9829 97.834Z" fill="#1F2937"/>
<path d="M497 0H380.467C371.92 0 364.967 6.953 364.967 15.5V33.917C364.967 38.059 368.325 41.417 372.467 41.417C376.609 41.417 379.967 38.059 379.967 33.917V15.5C379.967 15.224 380.191 15 380.467 15H497C497.276 15 497.5 15.224 497.5 15.5V115.467C497.5 115.743 497.276 115.967 497 115.967H380.467C380.191 115.967 379.967 115.743 379.967 115.467V63.917C379.967 59.775 376.609 56.417 372.467 56.417C368.325 56.417 364.967 59.775 364.967 63.917V115.467C364.967 124.014 371.92 130.967 380.467 130.967H497C505.547 130.967 512.5 124.014 512.5 115.467V15.5C512.5 6.953 505.547 0 497 0Z" fill="#1F2937"/>
<path d="M447.017 97.834C451.159 97.834 454.517 94.476 454.517 90.334C454.517 86.192 451.159 82.834 447.017 82.834H430.45C426.308 82.834 422.95 86.192 422.95 90.334C422.95 94.476 426.308 97.834 430.45 97.834H447.017Z" fill="#1F2937"/>
<path d="M505 182.233H372.467C368.325 182.233 364.967 185.591 364.967 189.733C364.967 193.875 368.325 197.233 372.467 197.233H398.1V216.569C388.492 219.729 381.533 228.781 381.533 239.432C381.533 252.702 392.329 263.499 405.6 263.499C418.87 263.499 429.666 252.703 429.666 239.432C429.666 228.78 422.707 219.728 413.1 216.569V197.233H464.367V216.569C454.759 219.729 447.8 228.781 447.8 239.432C447.8 252.702 458.596 263.499 471.867 263.499C485.137 263.499 495.933 252.703 495.933 239.432C495.933 228.78 488.974 219.728 479.367 216.569V197.233H505C509.142 197.233 512.5 193.875 512.5 189.733C512.5 185.591 509.142 182.233 505 182.233ZM405.6 248.5C400.6 248.5 396.533 244.433 396.533 239.433C396.533 234.434 400.6 230.367 405.6 230.367C410.599 230.367 414.666 234.434 414.666 239.433C414.666 244.433 410.599 248.5 405.6 248.5ZM471.867 248.5C466.868 248.5 462.8 244.433 462.8 239.433C462.8 234.434 466.867 230.367 471.867 230.367C476.866 230.367 480.933 234.434 480.933 239.433C480.933 244.433 476.866 248.5 471.867 248.5Z" fill="#1F2937"/>
</g>
</g>
<defs>
<clipPath id="clip0_156864_469">
<rect width="512" height="512" fill="white" transform="translate(0.5)"/>
</clipPath>
</defs>
</svg>
