<svg width="100" height="50" viewBox="0 0 100 50" fill="none" xmlns="http://www.w3.org/2000/svg">
<path d="M70.7751 49.8566C69.3125 49.5322 68.2009 48.511 67.8091 47.1316C67.6788 46.6728 67.6334 45.8143 67.7114 45.2813C67.8335 44.446 68.2176 43.6775 68.8035 43.0961C69.5617 42.3437 70.5259 41.9592 71.6445 41.9632C73 41.9683 74.0862 42.4974 74.8061 43.5036C75.2967 44.1894 75.539 44.9109 75.6626 46.054L75.692 46.3268H72.4817H69.2714L69.305 46.5258C69.4026 47.1032 69.6636 47.5998 70.0819 48.0035C70.6052 48.5088 71.1086 48.6992 71.9209 48.6992C72.7999 48.6992 73.4481 48.4359 74.0374 47.8396L74.4062 47.4665L75.0212 47.7389C75.3594 47.8886 75.6365 48.0337 75.637 48.0613C75.6386 48.1557 75.1155 48.7446 74.8191 48.9821C74.4592 49.2705 73.7012 49.6554 73.2179 49.7952C72.7393 49.9336 71.2871 49.9701 70.7751 49.8566ZM74.1194 45.2192C74.1194 45.0538 73.9065 44.5631 73.708 44.2713C72.8472 43.0055 71.1299 42.7841 70.0909 43.805C69.9409 43.9524 69.7574 44.1772 69.6831 44.3046C69.5419 44.5469 69.3272 45.0954 69.3272 45.2139C69.3272 45.2734 69.6584 45.2829 71.7233 45.2829C73.6975 45.2829 74.1194 45.2717 74.1194 45.2192ZM41.5391 49.8335C40.5924 49.6753 39.7966 49.0059 39.5303 48.1438C39.3493 47.5579 39.4296 46.8341 39.7329 46.3166C40.0487 45.778 40.821 45.2716 41.5701 45.1119C42.308 44.9547 43.2887 45.1291 43.9954 45.5433L44.2747 45.707V45.1177C44.2747 44.2094 44.1667 43.8405 43.8056 43.5142C43.5208 43.2569 43.1992 43.1793 42.5233 43.2049C42.0509 43.2228 41.9361 43.2436 41.7087 43.3525C41.4687 43.4673 41.1534 43.7379 40.9848 43.9736C40.9218 44.0616 40.9039 44.0599 40.2843 43.9077C39.9346 43.8217 39.6229 43.7381 39.5916 43.7219C39.5024 43.6756 39.7823 43.2641 40.1486 42.9032C40.5707 42.4873 41.16 42.1884 41.8311 42.0499C42.2264 41.9683 42.4164 41.9561 42.9698 41.9765C43.699 42.0034 44.0436 42.0757 44.4985 42.297C45.0244 42.5528 45.3822 43.0141 45.584 43.6964C45.657 43.9432 45.6696 44.2557 45.6857 46.22L45.704 48.462H46.3416H46.9792V49.1025V49.7431H45.6981H44.417V49.2923C44.417 49.0444 44.4043 48.8415 44.3887 48.8415C44.3731 48.8415 44.2611 48.9291 44.1396 49.0361C43.6627 49.4564 43.0658 49.7352 42.4328 49.8334C42.0546 49.8921 41.8901 49.8921 41.5391 49.8335ZM42.8278 48.6734C43.221 48.571 43.6388 48.3554 43.982 48.0776L44.2747 47.8408V47.3731V46.9054L44.0164 46.734C43.1793 46.1784 42.2623 45.9998 41.6461 46.2723C41.3768 46.3915 41.0659 46.6755 40.9446 46.9132C40.8051 47.1867 40.7801 47.5853 40.883 47.8951C40.9878 48.2107 41.3217 48.5593 41.6201 48.6647C41.8948 48.7617 42.4729 48.7659 42.8278 48.6734ZM56.7586 49.8348C56.2118 49.7376 55.8014 49.3889 55.6293 48.875C55.5555 48.6548 55.5449 48.3493 55.5309 46.054L55.5153 43.4799H55.0194H54.5234V42.8156V42.1514H55.0216H55.5198L55.5202 41.6176L55.5205 41.0838L56.2165 40.633C56.5992 40.3851 56.9247 40.1769 56.9397 40.1704C56.9547 40.1638 56.967 40.6016 56.967 41.1431V42.1277L57.6669 42.1408L58.3667 42.1539V42.8156V43.4774L57.6669 43.4905L56.967 43.5036V45.6387C56.967 46.8131 56.984 47.8734 57.0049 47.9951C57.0515 48.2674 57.2157 48.4435 57.462 48.4851C57.6238 48.5124 58.1187 48.452 58.2985 48.383C58.3558 48.3611 58.3667 48.4626 58.3667 49.0184V49.68L58.0385 49.7592C57.6169 49.861 57.0835 49.8925 56.7586 49.8348ZM85.3898 49.8359C85.0498 49.7826 84.5695 49.6291 84.263 49.4757C84.1399 49.4141 84.0279 49.3637 84.0139 49.3637C84 49.3637 83.9887 49.4491 83.9887 49.5535V49.7433H83.3363H82.6838V48.4622V47.1811H83.3363H83.9887V47.3477C83.9887 47.8559 84.5908 48.444 85.2718 48.6009C85.5816 48.6723 86.0828 48.6625 86.4557 48.5776C86.8001 48.4993 87.1057 48.3162 87.2439 48.1053C87.3557 47.9346 87.4026 47.6274 87.3474 47.4274C87.2441 47.0532 86.9613 46.9234 85.6256 46.637C84.5324 46.4025 83.9691 46.2239 83.6286 46.0038C82.9649 45.5748 82.6695 44.9647 82.7191 44.125C82.7524 43.5605 82.8868 43.2534 83.2708 42.8649C83.6365 42.4947 84.0042 42.2964 84.604 42.1457C85.3021 41.9703 86.3061 42.0634 86.966 42.3647L87.2151 42.4785V42.315V42.1516H87.8557H88.4962V43.409V44.6663H87.8557H87.2151V44.4118C87.2151 44.1691 87.2034 44.145 86.966 43.8984C86.6586 43.5791 86.3793 43.4123 85.9818 43.3104C85.5684 43.2045 85.002 43.2361 84.6627 43.3841C84.0255 43.6619 83.8382 44.3706 84.3011 44.7521C84.519 44.9318 84.7799 45.0081 85.9578 45.2363C86.5058 45.3425 87.093 45.4736 87.2626 45.5277C87.9821 45.7572 88.5317 46.21 88.737 46.7424C88.885 47.126 88.9147 47.7537 88.8042 48.1618C88.5983 48.9226 87.9324 49.5052 86.9947 49.745C86.5729 49.8529 85.7837 49.8976 85.3898 49.8359ZM30.7045 49.079V48.4147H31.3925H32.0805V44.2868V40.1588H31.3925H30.7045V39.4895V38.8203L33.2786 38.8429C36.008 38.8669 36.3805 38.8937 37.1337 39.1191C37.8235 39.3256 38.4182 39.7299 38.715 40.1942C38.9394 40.5453 39.0938 41.073 39.1506 41.6826C39.3193 43.4956 38.5753 44.8059 37.11 45.2765C36.5513 45.456 35.9903 45.5239 34.8206 45.5538L33.6938 45.5826V46.9987V48.4148H34.4055H35.1172V49.079V49.7433H32.9109H30.7045V49.079ZM35.995 44.1677C36.6962 44.0232 37.0512 43.799 37.2869 43.3518C37.4677 43.0087 37.537 42.6849 37.537 42.183C37.537 41.199 37.1392 40.6029 36.312 40.3473C35.8907 40.2172 35.3179 40.1596 34.4411 40.1592L33.6938 40.1588V42.2301V44.3014L34.6546 44.2737C35.256 44.2564 35.7574 44.2167 35.995 44.1677ZM47.6672 49.1027V48.4622H48.4386H49.2101L49.1978 45.9666L49.1856 43.4709L48.4408 43.4776L47.696 43.4843L47.6816 42.8178L47.6672 42.1514L49.0065 42.1515L50.3458 42.1516L50.3588 43.0175L50.3717 43.8834L50.5728 43.5191C51.1209 42.5257 51.801 42.1524 53.2068 42.0734L53.7643 42.0421V42.7776V43.5131L53.183 43.5449C52.1395 43.6021 51.6209 43.7743 51.2283 44.194C50.7714 44.6825 50.6807 45.1309 50.6453 47.0743L50.6201 48.4621H51.4686H52.3171V49.1027V49.7432H49.9922H47.6672L47.6672 49.1027ZM59.1496 49.1027V48.4622H59.8257H60.5019V45.9725V43.4827L59.8357 43.4696L59.1695 43.4564L59.1595 42.804L59.1496 42.1515L60.5375 42.1516L61.9253 42.1516V42.6023C61.9253 42.8503 61.9354 43.0531 61.9476 43.0531C61.9598 43.0531 62.1219 42.9547 62.3078 42.8345C63.5849 42.0083 64.9334 41.8234 65.7493 42.3626C66.1586 42.633 66.4211 43.147 66.526 43.8834C66.552 44.0661 66.5738 45.1711 66.5743 46.3389L66.5754 48.4622H67.216H67.8565V49.1027V49.7433H66.4805H65.1045V46.9999C65.1045 43.9807 65.1 43.9249 64.8168 43.6026C64.4096 43.1388 63.3763 43.3431 62.2733 44.1056L61.9255 44.346V46.4041V48.4622H62.5898H63.254V49.1027V49.7433H61.2019H59.1498L59.1496 49.1027ZM76.3732 49.1027V48.4622H77.1443H77.9153V45.9712V43.4801H77.1561H76.397V42.8159V42.1516H77.7255H79.054V43.0057C79.054 43.4754 79.0701 43.8584 79.0896 43.8568C79.1092 43.8551 79.1982 43.7048 79.2874 43.5228C79.5211 43.0458 79.9285 42.6205 80.3503 42.4129C80.7725 42.2052 81.1927 42.1139 81.9128 42.0734L82.4703 42.0421V42.7776V43.5131L81.8891 43.5449C80.8519 43.6018 80.3232 43.7784 79.929 44.1998C79.4814 44.6783 79.3863 45.1515 79.3514 47.0743L79.3261 48.4622H80.1747H81.0232V49.1027V49.7433H78.6982H76.3732L76.3732 49.1027ZM54.132 40.5057C54.058 40.4863 54.049 40.4132 54.049 39.835L54.0491 39.1861H54.7252C55.3772 39.1861 55.4091 39.1816 55.6231 39.0557C55.7906 38.9572 55.8745 38.8642 55.9658 38.6761C56.1632 38.2693 56.1897 37.6908 56.1743 34.1329L56.1604 30.9301H55.5791H54.9978L54.9979 30.2777L54.9979 29.6253H56.3323H57.6668L57.6412 33.7889C57.6198 37.2784 57.6032 38.0404 57.5386 38.4955C57.4962 38.7941 57.4356 39.0698 57.404 39.1081C57.3724 39.1464 56.8828 39.4839 56.316 39.8581L55.2855 40.5384L54.7502 40.5328C54.4559 40.53 54.1776 40.5176 54.132 40.5057ZM50.0633 37.4073C48.4866 37.2104 47.2966 36.2471 46.7803 34.7497C46.6273 34.3061 46.6249 34.2855 46.6241 33.4449C46.6236 32.6931 46.6364 32.5457 46.7325 32.2139C47.1095 30.9118 48.0814 29.9504 49.399 29.5762C49.8586 29.4457 50.7348 29.4007 51.2376 29.4818C52.8275 29.7382 54.0793 30.9234 54.4522 32.5255C54.5701 33.0322 54.5599 33.9434 54.4306 34.4413C53.9866 36.1519 52.566 37.3173 50.7987 37.4208C50.5639 37.4346 50.2329 37.4285 50.0633 37.4073ZM51.0725 35.9611C52.1418 35.7345 52.922 34.7688 52.9905 33.5872C53.1032 31.6408 51.2094 30.2638 49.5414 31.0794C48.5033 31.587 47.9253 32.818 48.17 34.0001C48.336 34.8019 49.0106 35.6075 49.7332 35.8667C50.2111 36.0382 50.5845 36.0645 51.0725 35.9611ZM62.7319 37.4061C61.2883 37.2646 60.0873 36.4797 59.488 35.2862C59.0044 34.323 58.9532 32.9239 59.3629 31.8645C59.7565 30.8466 60.6586 29.9875 61.686 29.6521C62.755 29.3031 63.9419 29.3706 64.8825 29.8338C66.1662 30.4659 66.8976 31.6816 67.0764 33.4805L67.1082 33.8008H63.8978H60.6874L60.7184 33.9787C60.9029 35.0386 61.6221 35.8418 62.6196 36.1016C63.0094 36.2032 63.6817 36.1933 64.1265 36.0796C64.6861 35.9365 65.0955 35.6978 65.485 35.2877L65.8201 34.935L66.423 35.2038C66.7547 35.3517 67.0409 35.4861 67.0592 35.5026C67.0774 35.5191 66.9808 35.6708 66.8444 35.8398C66.1278 36.7277 65.0622 37.2714 63.7758 37.4056C63.2828 37.457 63.2515 37.457 62.7319 37.4061ZM65.5006 32.5078C65.3797 32.0963 65.1458 31.7078 64.8196 31.3772C63.7963 30.3399 62.1956 30.3932 61.3046 31.4944C61.0794 31.7728 60.8324 32.2793 60.7641 32.6027L60.7316 32.7569H63.1526H65.5737L65.5006 32.5078ZM71.4861 37.4218C71.0429 37.3831 70.5568 37.2442 70.1085 37.028C69.1146 36.5485 68.4249 35.6594 68.1314 34.4793C67.9838 33.8856 67.9839 32.8574 68.1316 32.2824C68.4207 31.1569 69.1558 30.2331 70.1195 29.7839C70.6834 29.5211 71.1973 29.4219 71.8657 29.4469C72.552 29.4725 73.0696 29.6258 73.5438 29.9437C73.7107 30.0557 73.8552 30.1473 73.8648 30.1473C73.8744 30.1473 73.8822 30.0298 73.8822 29.8863V29.6253L74.5346 29.6253L75.187 29.6253V31.0487V32.4722L74.5458 32.4722L73.9047 32.4722L73.8465 32.2272C73.6781 31.5183 73.1842 31.0324 72.4334 30.8368C71.2501 30.5286 70.1303 31.1918 69.7248 32.441C69.6197 32.765 69.5988 32.917 69.5967 33.3737C69.5928 34.2497 69.8122 34.879 70.3084 35.4149C71.0679 36.2353 72.4905 36.3419 73.4191 35.6481C73.6711 35.4598 74.0739 34.9741 74.1696 34.7432L74.2215 34.6179L74.8343 34.9061L75.4471 35.1942L75.2764 35.5058C74.7991 36.3773 74.0781 36.9738 73.1596 37.2571C72.8643 37.3483 72.0131 37.4647 71.7776 37.4463C71.7216 37.4418 71.5905 37.4308 71.4861 37.4218ZM78.5321 37.3315C77.8648 37.2208 77.5701 37.0651 77.3649 36.715C77.0954 36.2551 77.0921 36.2203 77.0637 33.4686L77.0375 30.9301H76.5511H76.0647L76.0648 30.2777L76.0648 29.6253H76.563H77.0612V29.0413V28.4573L77.7848 27.8018L78.5084 27.1464L78.5211 28.3858L78.5337 29.6253H79.2209H79.9081L79.9081 30.2777L79.9081 30.9301H79.232H78.5559V33.2635C78.5559 35.5581 78.5576 35.5991 78.6553 35.7308C78.8025 35.929 79.0389 35.9919 79.429 35.9366C79.6067 35.9113 79.7872 35.8773 79.8301 35.8608C79.9002 35.8339 79.9081 35.898 79.9081 36.4915V37.1522L79.5641 37.2308C79.1884 37.3166 78.7188 37.3624 78.5321 37.3315ZM30.7045 36.5527V35.8885H31.3925H32.0805V31.7605V27.6325H31.3925H30.7045V26.9638V26.2951L33.2786 26.3165C36.0109 26.3392 36.3769 26.3655 37.1317 26.5928C37.8397 26.806 38.4128 27.1952 38.715 27.668C39.1944 28.4178 39.3209 29.9205 38.9876 30.9057C38.645 31.9184 37.9469 32.5347 36.8016 32.8357C36.3636 32.9508 36.2268 32.9626 35.0223 32.9891L33.7175 33.0178L33.7049 34.4531L33.6924 35.8884H34.4048H35.1172V36.5527V37.217H32.9109H30.7045L30.7045 36.5527ZM35.9708 31.6394C37.1239 31.4198 37.5919 30.7742 37.5258 29.4941C37.4745 28.5015 37.0882 28.0243 36.129 27.7688C35.8271 27.6883 35.5649 27.6652 34.7257 27.645L33.6938 27.6201V29.6587C33.6938 30.7799 33.7098 31.7142 33.7293 31.7349C33.7879 31.797 35.534 31.7226 35.9708 31.6394ZM40.0043 36.5765V35.9359H40.7639H41.5235L41.5112 33.433L41.499 30.9301H40.7517H40.0044L40.0044 30.2777L40.0043 29.6253H41.3329H42.6614V30.4794C42.6614 31.0171 42.679 31.3335 42.7089 31.3335C42.735 31.3335 42.7564 31.308 42.7564 31.2769C42.7564 31.1699 43.1354 30.5825 43.3703 30.3256C43.8133 29.8408 44.4761 29.5976 45.4965 29.5455L46.0777 29.5158V30.2512V30.9867L45.4965 31.0177C43.9876 31.0983 43.3574 31.4982 43.112 32.5306C43.0186 32.924 42.9371 34.3114 42.9553 35.2004L42.9699 35.9122L43.8121 35.9251L44.6543 35.9381V36.5775V37.217H42.3294H40.0044L40.0043 36.5765ZM56.5449 27.8679C56.3795 27.8184 56.1558 27.614 56.0536 27.419C56.0109 27.3375 55.9789 27.1593 55.9787 27.0023C55.9783 26.5071 56.3336 26.1616 56.8435 26.1616C57.1751 26.1616 57.4482 26.3152 57.6015 26.588C57.7574 26.8654 57.7326 27.3083 57.5476 27.5508C57.3192 27.8502 56.914 27.9784 56.5449 27.8679ZM34.1934 24.8258C33.7112 24.7699 33.0671 24.5542 32.6333 24.3035C32.4216 24.1811 32.1315 23.9442 31.8618 23.6733C31.4881 23.2979 31.3967 23.1722 31.1856 22.7432C30.828 22.0164 30.7768 21.779 30.7762 20.8474C30.7756 19.9708 30.8323 19.6688 31.1131 19.052C31.629 17.9188 32.6618 17.1401 33.9516 16.9117C34.3654 16.8384 35.1634 16.8509 35.5815 16.9373C37.548 17.3435 38.9197 19.2707 38.6813 21.2924C38.4119 23.5764 36.4873 25.0917 34.1934 24.8258ZM35.4824 23.3155C36.082 23.1047 36.5871 22.6475 36.8724 22.0574C37.1044 21.5774 37.1788 21.1968 37.1444 20.6656C37.0662 19.4588 36.2069 18.4771 35.0593 18.2835C34.3435 18.1628 33.5827 18.4268 33.0341 18.9862C32.0104 20.03 32.0098 21.6833 33.0329 22.7098C33.3817 23.0598 33.8771 23.3348 34.2949 23.4104C34.6237 23.4699 35.1666 23.4264 35.4824 23.3155ZM56.6469 24.8306C55.3308 24.6857 54.2695 24.0739 53.6214 23.0866C53.1614 22.3859 52.9755 21.6271 53.0181 20.6231C53.0489 19.8979 53.153 19.4945 53.4683 18.8802C53.7774 18.2778 54.4095 17.646 55.0216 17.3274C55.7239 16.962 56.0674 16.8852 56.9907 16.8873C57.5931 16.8884 57.8441 16.9087 58.0793 16.974C59.2731 17.3057 60.1802 18.1424 60.6458 19.3414C60.8023 19.7446 60.9655 20.5083 60.9828 20.9186L60.9948 21.2033L57.8066 21.2155C54.9219 21.2266 54.6183 21.2349 54.6183 21.3036C54.6183 21.4824 54.781 21.9859 54.9317 22.2734C55.21 22.8041 55.7347 23.2592 56.3046 23.464C56.6898 23.6024 57.4559 23.6354 57.9333 23.5341C58.4951 23.4149 58.9487 23.1634 59.374 22.7353L59.7407 22.3662L60.3467 22.6331C60.68 22.7798 60.9612 22.9075 60.9716 22.9167C61.0083 22.9493 60.7118 23.3343 60.4421 23.6041C59.5474 24.4992 58.0451 24.9847 56.6469 24.8306ZM59.4404 20.029C59.3759 19.691 59.0261 19.0843 58.7244 18.787C57.405 17.487 55.3562 17.9815 54.7648 19.7428C54.7104 19.9051 54.6658 20.0705 54.6658 20.1105C54.6658 20.1748 54.9423 20.1832 57.0678 20.1832H59.4699L59.4404 20.029ZM39.1977 24.0027V23.3622H39.8857H40.5737V20.8474V18.3327H39.9332H39.2926V17.6922V17.0516H40.6686H42.0446V17.5261C42.0446 17.787 42.0551 18.0006 42.0679 18.0006C42.0807 18.0006 42.1892 17.9258 42.309 17.8344C42.6167 17.5995 43.107 17.3227 43.468 17.1801C43.9005 17.0093 44.3557 16.9406 44.8746 16.9677C45.249 16.9873 45.3657 17.0144 45.6242 17.1416C45.9602 17.307 46.2281 17.5757 46.3998 17.9195L46.5081 18.1364L46.8702 17.8766C47.3723 17.5163 47.778 17.2972 48.2557 17.1283C48.6266 16.9971 48.7175 16.984 49.2567 16.9837C49.7616 16.9835 49.8897 16.9994 50.1181 17.0904C50.7988 17.3618 51.1389 17.8523 51.2476 18.7196C51.2752 18.9394 51.2969 20.051 51.2969 21.2376V23.3622H51.9612H52.6255V24.0027V24.6433H51.2258H49.8261V21.9411C49.8261 20.193 49.8081 19.1549 49.7751 19.001C49.5665 18.0285 48.4848 17.9834 47.1453 18.8914L46.6708 19.213V21.2757V23.3385L47.3232 23.3517L47.9756 23.3649V24.0041V24.6433H46.5996H45.2236L45.2219 22.093C45.2214 20.6903 45.2001 19.3855 45.1751 19.1934C45.1497 18.9974 45.0827 18.7579 45.0224 18.6477C44.8193 18.2763 44.3501 18.1506 43.7525 18.3075C43.4289 18.3924 42.7314 18.7437 42.3528 19.0125L42.0681 19.2146L42.0557 21.2884L42.0434 23.3622H42.7082H43.3729V24.0028V24.6433H41.2852H39.1975L39.1977 24.0027Z" fill="#E6E9FD"/>
<path d="M8.22791 41.0916L8.22793 32.1833H8.72263H9.21734L10.458 31.3055C11.1403 30.8227 11.7077 30.4277 11.7189 30.4277C11.73 30.4277 11.7391 34.8256 11.7391 40.2008V49.974L9.98349 49.987L8.22791 50L8.22791 41.0916ZM26.165 35.0895L26.1667 20.2026L27.8517 19.0164C28.7785 18.364 29.5571 17.8231 29.5819 17.8144C29.6103 17.8045 29.6269 23.7502 29.6269 33.8874V49.9763H27.8951H26.1632L26.165 35.0895ZM8.22793 13.0614V0.0609698H9.69186C10.497 0.0609698 11.287 0.0472412 11.4474 0.0304849L11.7391 0V11.7458V23.4915L11.063 23.9853C10.6911 24.2568 9.90106 24.8351 9.30737 25.2704L8.22793 26.0617V13.0614ZM26.1633 6.47041V0.0609698H27.6035C28.3956 0.0609698 29.1749 0.0472412 29.3353 0.0304849L29.627 0L29.6242 5.19046L29.6214 10.3809L27.9334 11.6146C27.0049 12.2931 26.2268 12.8553 26.2041 12.864C26.1808 12.8729 26.1633 10.0857 26.1633 6.47041Z" fill="#E6E9FD"/>
<path d="M4.07615 32.1411L0 32.129L0.256586 31.9483C0.397709 31.849 1.35657 31.1487 2.38738 30.3923C3.41819 29.6358 5.14232 28.3708 6.2188 27.5811C7.29528 26.7913 8.17603 26.1252 8.17603 26.1007C8.17603 26.0762 8.19206 26.0615 8.21162 26.0679C8.24788 26.0799 8.67952 25.7659 15.8389 20.5211C23.7812 14.7025 26.041 13.0432 26.1114 12.9778C26.184 12.9103 29.5203 10.461 29.6572 10.3747C29.7526 10.3145 31.7764 8.83322 38.353 4.00994C41.2366 1.89506 43.6405 0.136992 43.695 0.103137C43.7844 0.0474888 43.8962 0.100894 44.8574 0.658339C47.1739 2.00173 53.681 5.77955 57.261 7.85941C58.618 8.64779 60.9347 9.99276 62.4091 10.8482C63.8835 11.7037 65.4102 12.5904 65.8016 12.8187C66.4949 13.223 70.5887 15.6 72.3969 16.648C72.8927 16.9354 75.0172 18.1693 77.118 19.39C79.2187 20.6106 81.4607 21.9124 82.1 22.2829C82.7394 22.6533 85.1308 24.0418 87.4142 25.3684C89.6976 26.695 92.0475 28.0597 92.6362 28.4011C93.2249 28.7424 94.9023 29.7157 96.3637 30.5638L99.0208 32.1058L93.9351 32.1179L88.8495 32.13L85.9848 30.5818C84.4092 29.7304 82.0632 28.4625 80.7715 27.7644C79.4797 27.0663 77.1097 25.7852 75.5047 24.9175C73.8998 24.0498 71.391 22.6941 69.9296 21.9049C68.4682 21.1156 66.6213 20.118 65.8254 19.6879C65.0294 19.2578 63.4387 18.3984 62.2905 17.7782C61.1422 17.158 59.8184 16.4418 59.3487 16.1866C58.879 15.9315 57.4377 15.152 56.146 14.4544C50.3655 11.3326 48.3301 10.2328 46.1344 9.04487C44.8427 8.34599 43.7639 7.77389 43.7372 7.77355C43.7105 7.77322 42.0024 8.96424 39.9414 10.4203C31.7391 16.215 29.6228 17.713 27.9381 18.9164C26.9726 19.6062 26.1505 20.1858 26.1114 20.2044C26.0283 20.2438 15.0656 27.981 10.5132 31.2131L9.23102 32.1235L8.69167 32.1384C8.39502 32.1466 6.31804 32.1478 4.07615 32.1411ZM77.972 27.6041C77.972 27.5942 78.0094 27.5568 78.0551 27.521C78.1303 27.462 78.132 27.4637 78.073 27.539C78.011 27.618 77.972 27.6431 77.972 27.6041Z" fill="#FDA619"/>
</svg>
