<svg xmlns="http://www.w3.org/2000/svg" version="1.1" xmlns:xlink="http://www.w3.org/1999/xlink" width="512" height="512" x="0" y="0" viewBox="0 0 512 512" style="enable-background:new 0 0 512 512" xml:space="preserve" class=""><g><path d="M503.742 140.451H8.258A8.258 8.258 0 0 0 0 148.709v16.516a8.258 8.258 0 0 0 8.258 8.258h495.484a8.258 8.258 0 0 0 8.258-8.258v-16.516a8.258 8.258 0 0 0-8.258-8.258zM503.742 404.709H8.258A8.258 8.258 0 0 1 0 396.451v-16.516a8.258 8.258 0 0 1 8.258-8.258h495.484a8.258 8.258 0 0 1 8.258 8.258v16.516a8.258 8.258 0 0 1-8.258 8.258z" style="" fill="#ad3d03" data-original="#cd916e" class="" opacity="1"></path><path d="M87.575 118.095 64.976 78.548c-3.17-5.548-11.17-5.548-14.34 0l-22.598 39.547a24.773 24.773 0 0 0-3.264 12.291v298.969a8.258 8.258 0 0 0 8.258 8.258H82.58a8.258 8.258 0 0 0 8.258-8.258V130.386a24.759 24.759 0 0 0-3.263-12.291z" style="" fill="#fa5100" data-original="#e3aa75" class="" opacity="1"></path><path d="M41.29 392.194V94.904l-13.252 23.191a24.773 24.773 0 0 0-3.264 12.291v298.969a8.258 8.258 0 0 0 8.258 8.258H82.58a8.258 8.258 0 0 0 8.258-8.258v-12.387H66.065c-13.683 0-24.775-11.092-24.775-24.774z" style="" fill="#d94900" data-original="#d29b6e" class="" opacity="1"></path><circle cx="57.806" cy="156.84" r="8.258" style="" fill="#414871" data-original="#867e88" class="" opacity="1"></circle><circle cx="57.806" cy="388.06" r="8.258" style="" fill="#414871" data-original="#867e88" class="" opacity="1"></circle><path d="m186.671 118.095-22.598-39.547c-3.17-5.548-11.17-5.548-14.34 0l-22.598 39.547a24.773 24.773 0 0 0-3.264 12.291v298.969a8.258 8.258 0 0 0 8.258 8.258h49.548a8.258 8.258 0 0 0 8.258-8.258V130.386a24.77 24.77 0 0 0-3.264-12.291z" style="" fill="#fa5100" data-original="#e3aa75" class="" opacity="1"></path><path d="M140.387 392.194V94.904l-13.252 23.191a24.773 24.773 0 0 0-3.264 12.291v298.969a8.258 8.258 0 0 0 8.258 8.258h49.548a8.258 8.258 0 0 0 8.258-8.258v-12.387h-24.774c-13.682 0-24.774-11.092-24.774-24.774z" style="" fill="#d94900" data-original="#d29b6e" class="" opacity="1"></path><circle cx="156.9" cy="156.84" r="8.258" style="" fill="#414871" data-original="#867e88" class="" opacity="1"></circle><circle cx="156.9" cy="388.06" r="8.258" style="" fill="#414871" data-original="#867e88" class="" opacity="1"></circle><path d="M285.768 118.095 263.17 78.548C260 73 252 73 248.83 78.548l-22.598 39.547a24.773 24.773 0 0 0-3.264 12.291v298.969a8.258 8.258 0 0 0 8.258 8.258h49.548a8.258 8.258 0 0 0 8.258-8.258V130.386a24.77 24.77 0 0 0-3.264-12.291z" style="" fill="#fa5100" data-original="#e3aa75" class="" opacity="1"></path><path d="M239.484 392.194V94.904l-13.252 23.191a24.773 24.773 0 0 0-3.264 12.291v298.969a8.258 8.258 0 0 0 8.258 8.258h49.548a8.258 8.258 0 0 0 8.258-8.258v-12.387h-24.774c-13.682 0-24.774-11.092-24.774-24.774z" style="" fill="#d94900" data-original="#d29b6e" class="" opacity="1"></path><circle cx="256" cy="156.84" r="8.258" style="" fill="#414871" data-original="#867e88" class="" opacity="1"></circle><circle cx="256" cy="388.06" r="8.258" style="" fill="#414871" data-original="#867e88" class="" opacity="1"></circle><path d="m384.865 118.095-22.598-39.547c-3.17-5.548-11.17-5.548-14.34 0l-22.598 39.547a24.773 24.773 0 0 0-3.264 12.291v298.969a8.258 8.258 0 0 0 8.258 8.258h49.548a8.258 8.258 0 0 0 8.258-8.258V130.386a24.77 24.77 0 0 0-3.264-12.291z" style="" fill="#fa5100" data-original="#e3aa75" class="" opacity="1"></path><path d="M338.581 392.194V94.904l-13.252 23.191a24.773 24.773 0 0 0-3.264 12.291v298.969a8.258 8.258 0 0 0 8.258 8.258h49.548a8.258 8.258 0 0 0 8.258-8.258v-12.387h-24.774c-13.683 0-24.774-11.092-24.774-24.774z" style="" fill="#d94900" data-original="#d29b6e" class="" opacity="1"></path><circle cx="355.1" cy="156.84" r="8.258" style="" fill="#414871" data-original="#867e88" class="" opacity="1"></circle><circle cx="355.1" cy="388.06" r="8.258" style="" fill="#414871" data-original="#867e88" class="" opacity="1"></circle><path d="m483.962 118.095-22.598-39.547c-3.17-5.548-11.17-5.548-14.34 0l-22.598 39.547a24.773 24.773 0 0 0-3.264 12.291v298.969a8.258 8.258 0 0 0 8.258 8.258h49.548a8.258 8.258 0 0 0 8.258-8.258V130.386a24.77 24.77 0 0 0-3.264-12.291z" style="" fill="#fa5100" data-original="#e3aa75" class="" opacity="1"></path><path d="M437.677 392.194V94.904l-13.252 23.191a24.773 24.773 0 0 0-3.264 12.291v298.969a8.258 8.258 0 0 0 8.258 8.258h49.548a8.258 8.258 0 0 0 8.258-8.258v-12.387h-24.774c-13.682 0-24.774-11.092-24.774-24.774z" style="" fill="#d94900" data-original="#d29b6e" class="" opacity="1"></path><circle cx="454.19" cy="156.84" r="8.258" style="" fill="#414871" data-original="#867e88" class="" opacity="1"></circle><circle cx="454.19" cy="388.06" r="8.258" style="" fill="#414871" data-original="#867e88" class="" opacity="1"></circle></g></svg>