<svg width="513" height="512" viewBox="0 0 513 512" fill="none" xmlns="http://www.w3.org/2000/svg">
<g clip-path="url(#clip0_156864_490)">
<path d="M509.862 106.052L498.248 94.8111C494.809 91.4831 489.325 91.5731 485.998 95.0111C482.67 98.4501 482.76 103.934 486.198 107.261L495.173 115.949V435.624H420.414V115.95L457.793 79.7701L467.951 89.6031C471.39 92.9311 476.874 92.8411 480.201 89.4031C483.529 85.9641 483.439 80.4801 480.001 77.1531L463.816 61.4881C460.457 58.2371 455.125 58.2371 451.764 61.4881L405.721 106.053C404.036 107.685 403.083 109.931 403.083 112.278V167.632H378.301V112.278C378.301 109.931 377.349 107.685 375.663 106.053L329.62 61.4881C326.261 58.2371 320.929 58.2371 317.568 61.4881L271.525 106.053C269.84 107.685 268.887 109.931 268.887 112.278V167.632H244.105V112.278C244.105 109.931 243.153 107.685 241.467 106.053L195.424 61.4881C192.065 58.2371 186.733 58.2371 183.372 61.4881L137.329 106.053C135.644 107.685 134.691 109.931 134.691 112.278V167.632H109.912V112.278C109.912 109.931 108.96 107.685 107.274 106.053L61.233 61.4871C57.874 58.2361 52.542 58.2361 49.181 61.4871L3.13802 106.052C1.45202 107.685 0.500023 109.931 0.500023 112.277V190.156C0.500023 194.941 4.37902 198.82 9.16402 198.82C13.949 198.82 17.828 194.941 17.828 190.156V115.95L55.207 79.7701L92.586 115.95V435.624H17.827V219.035C17.827 214.25 13.948 210.371 9.16302 210.371C4.37802 210.371 0.499023 214.25 0.499023 219.035V444.287C0.499023 449.072 4.37802 452.951 9.16302 452.951H101.249C106.034 452.951 109.913 449.072 109.913 444.287V418.296H134.695V444.287C134.695 449.072 138.574 452.951 143.359 452.951H235.444C240.229 452.951 244.108 449.072 244.108 444.287V418.296H268.89V444.287C268.89 449.072 272.769 452.951 277.554 452.951H369.64C374.425 452.951 378.304 449.072 378.304 444.287V418.296H403.086V444.287C403.086 449.072 406.965 452.951 411.75 452.951H503.836C508.621 452.951 512.5 449.072 512.5 444.287V112.277C512.5 109.931 511.548 107.685 509.862 106.052ZM134.696 400.97H109.914V360.54H134.696V400.97ZM134.696 343.213H109.914V242.716H134.696V343.213ZM134.696 225.389H109.914V184.959H134.696V225.389ZM268.891 400.97H244.109V360.54H268.891V400.97ZM268.891 343.213H244.109V276.793C244.109 272.008 240.23 268.129 235.445 268.129C230.66 268.129 226.781 272.008 226.781 276.793V435.625H152.023V115.95L189.402 79.7701L226.781 115.949V247.914C226.781 252.699 230.66 256.577 235.445 256.577C240.23 256.577 244.109 252.698 244.109 247.914V242.716H268.891V343.213ZM268.891 225.389H244.109V184.959H268.891V225.389ZM360.976 435.624H286.218V115.95L323.597 79.7701L360.976 115.95V435.624ZM403.086 400.97H378.304V360.54H403.086V400.97ZM403.086 343.213H378.304V242.716H403.086V343.213ZM403.086 225.389H378.304V184.959H403.086V225.389Z" fill="#1F2937"/>
<path d="M457.796 213.84C462.581 213.84 466.46 209.961 466.46 205.176C466.46 200.391 462.581 196.512 457.796 196.512C453.011 196.512 449.132 200.391 449.132 205.176C449.132 209.961 453.011 213.84 457.796 213.84Z" fill="#1F2937"/>
<path d="M457.796 389.421C462.581 389.421 466.46 385.542 466.46 380.757C466.46 375.972 462.581 372.093 457.796 372.093C453.011 372.093 449.132 375.972 449.132 380.757C449.132 385.542 453.011 389.421 457.796 389.421Z" fill="#1F2937"/>
<path d="M323.592 213.84C328.377 213.84 332.256 209.961 332.256 205.176C332.256 200.391 328.377 196.512 323.592 196.512C318.807 196.512 314.928 200.391 314.928 205.176C314.928 209.961 318.807 213.84 323.592 213.84Z" fill="#1F2937"/>
<path d="M323.592 389.421C328.377 389.421 332.256 385.542 332.256 380.757C332.256 375.972 328.377 372.093 323.592 372.093C318.807 372.093 314.928 375.972 314.928 380.757C314.928 385.542 318.807 389.421 323.592 389.421Z" fill="#1F2937"/>
<path d="M189.4 213.84C194.185 213.84 198.064 209.961 198.064 205.176C198.064 200.391 194.185 196.512 189.4 196.512C184.615 196.512 180.736 200.391 180.736 205.176C180.736 209.961 184.615 213.84 189.4 213.84Z" fill="#1F2937"/>
<path d="M189.4 389.421C194.185 389.421 198.064 385.542 198.064 380.757C198.064 375.972 194.185 372.093 189.4 372.093C184.615 372.093 180.736 375.972 180.736 380.757C180.736 385.542 184.615 389.421 189.4 389.421Z" fill="#1F2937"/>
<path d="M55.207 213.84C59.992 213.84 63.871 209.961 63.871 205.176C63.871 200.391 59.992 196.512 55.207 196.512C50.422 196.512 46.543 200.391 46.543 205.176C46.543 209.961 50.422 213.84 55.207 213.84Z" fill="#1F2937"/>
<path d="M55.207 389.421C59.992 389.421 63.871 385.542 63.871 380.757C63.871 375.972 59.992 372.093 55.207 372.093C50.422 372.093 46.543 375.972 46.543 380.757C46.543 385.542 50.422 389.421 55.207 389.421Z" fill="#1F2937"/>
</g>
<defs>
<clipPath id="clip0_156864_490">
<rect width="512" height="512" fill="white" transform="translate(0.5)"/>
</clipPath>
</defs>
</svg>
