<svg width="513" height="512" viewBox="0 0 513 512" fill="none" xmlns="http://www.w3.org/2000/svg">
<path d="M498.189 31.801H491.299V7.95C491.299 3.559 487.74 0 483.349 0H421.867C417.475 0 413.917 3.56 413.917 7.95V31.801H404.907C400.515 31.801 396.957 35.361 396.957 39.751V65.192C396.957 69.583 400.516 73.142 404.907 73.142H413.917V96.993C413.917 101.384 417.476 104.943 421.867 104.943C426.259 104.943 429.817 101.383 429.817 96.993V73.143H475.399V188.157C475.399 236.379 436.167 275.61 387.946 275.61H328.054V227.908H390.066C411.985 227.908 429.818 210.076 429.818 188.156V139.394C429.818 135.003 426.259 131.444 421.868 131.444C417.476 131.444 413.918 135.004 413.918 139.394V188.156C413.918 201.308 403.218 212.007 390.067 212.007H328.055V200.877C328.055 196.486 324.496 192.927 320.105 192.927H294.664C290.272 192.927 286.714 196.487 286.714 200.877V212.007H268.69V155.825H277.221C280.692 168.045 291.944 177.026 305.261 177.026C321.334 177.026 334.412 163.949 334.412 147.875C334.412 131.801 321.334 118.724 305.261 118.724C291.944 118.724 280.691 127.705 277.221 139.925H244.258C240.787 127.705 229.535 118.724 216.218 118.724C200.145 118.724 187.067 131.801 187.067 147.875C187.067 163.949 200.145 177.026 216.218 177.026C229.535 177.026 240.788 168.045 244.258 155.825H252.789V212.007H234.768V200.877C234.768 196.486 231.209 192.927 226.818 192.927H201.377C196.985 192.927 193.427 196.487 193.427 200.877V212.007H127.174C70.1838 212.007 23.8198 258.371 23.8198 315.361V351.402C23.8198 355.793 27.3788 359.352 31.7698 359.352C36.1618 359.352 39.7198 355.792 39.7198 351.402V315.361C39.7198 267.139 78.9518 227.908 127.173 227.908H193.426V275.61H125.053C103.133 275.61 85.3008 293.442 85.3008 315.362V436.737H39.7218V393.805C39.7218 389.414 36.1628 385.855 31.7718 385.855C27.3798 385.855 23.8218 389.415 23.8218 393.805V436.737H14.8118C10.4198 436.737 6.86182 440.297 6.86182 444.687V470.128C6.86182 474.519 10.4208 478.078 14.8118 478.078H23.8218V501.929C23.8218 506.32 27.3808 509.879 31.7718 509.879H93.2538C97.6458 509.879 101.204 506.319 101.204 501.929V478.078H108.094C112.486 478.078 116.044 474.518 116.044 470.128V444.687C116.044 440.296 112.485 436.737 108.094 436.737H101.204V315.362C101.204 302.21 111.904 291.511 125.055 291.511H193.428V302.641C193.428 307.032 196.987 310.591 201.378 310.591H226.819C231.211 310.591 234.769 307.031 234.769 302.641V291.511H286.711V302.641C286.711 307.032 290.27 310.591 294.661 310.591H320.102C324.494 310.591 328.052 307.031 328.052 302.641V291.511H387.944C444.934 291.511 491.298 245.147 491.298 188.157V73.143H498.188C502.58 73.143 506.138 69.583 506.138 65.193V39.752C506.14 35.361 502.581 31.801 498.189 31.801ZM305.262 134.625C312.569 134.625 318.513 140.569 318.513 147.876C318.513 155.183 312.569 161.126 305.262 161.126C297.955 161.126 292.012 155.182 292.012 147.876C292.012 140.57 297.955 134.625 305.262 134.625ZM216.218 161.126C208.911 161.126 202.967 155.182 202.967 147.876C202.967 140.57 208.911 134.625 216.218 134.625C223.525 134.625 229.468 140.569 229.468 147.876C229.468 155.183 223.525 161.126 216.218 161.126ZM85.3028 493.979H39.7218V478.078H85.3038L85.3028 493.979ZM100.144 462.178H22.7608V452.638H100.144V462.178ZM218.869 294.692H209.329V208.829H218.869V294.692ZM286.711 275.611H234.769V227.909H286.711V275.611ZM312.152 294.692H302.612V208.829H312.152V294.692ZM429.817 15.901H475.399V31.802H429.817V15.901ZM490.239 57.242H412.856V47.702H490.239V57.242Z" fill="#1F2937"/>
<path d="M302.136 372.824C299.913 369.036 295.042 367.767 291.256 369.989C287.468 372.211 286.2 377.082 288.421 380.869C310.914 419.209 314.272 435.982 314.272 442.567C314.272 472.085 290.258 496.099 260.74 496.099C231.222 496.099 207.208 472.085 207.208 442.567C207.208 419.703 241.407 365.549 260.722 337.639C263.545 341.728 267.114 346.988 271.054 352.994C273.462 356.666 278.392 357.69 282.062 355.282C285.734 352.875 286.758 347.945 284.35 344.273C274.743 329.625 267.479 319.594 267.175 319.174C264.053 314.87 257.426 314.87 254.303 319.174C247.856 328.065 191.307 407.057 191.307 442.567C191.307 480.853 222.454 512 260.74 512C299.026 512 330.173 480.853 330.173 442.567C330.173 427.795 321.002 404.981 302.136 372.824Z" fill="#1F2937"/>
<path d="M280.193 385.698C277.97 381.91 273.1 380.642 269.313 382.863C265.525 385.085 264.257 389.956 266.478 393.743C288.041 430.5 288.81 442.184 288.831 442.566C288.831 458.055 276.229 470.657 260.74 470.657C256.348 470.657 252.79 474.217 252.79 478.607C252.79 482.997 256.349 486.557 260.74 486.557C284.997 486.557 304.732 466.822 304.732 442.565C304.732 439.038 302.963 424.511 280.193 385.698Z" fill="#1F2937"/>
</svg>
