<svg width="683" height="682" viewBox="0 0 683 682" fill="none" xmlns="http://www.w3.org/2000/svg">
<g clip-path="url(#clip0_156864_598)">
<mask id="mask0_156864_598" style="mask-type:luminance" maskUnits="userSpaceOnUse" x="0" y="0" width="682" height="682">
<path d="M681.833 0H0.5V681.333H681.833V0Z" fill="white"/>
</mask>
<g mask="url(#mask0_156864_598)">
<path d="M681.051 457.636C681.046 457.62 681.04 457.61 681.035 457.594C681.03 457.584 681.025 457.568 681.02 457.558L571.796 204.36C567.819 195.143 561.81 187.138 554.413 181.212C540.321 169.911 522.584 163.684 504.479 163.684H444.814C444.56 163.679 444.31 163.679 444.055 163.684H341.475C341.376 163.684 341.272 163.679 341.168 163.679C341.064 163.679 340.96 163.684 340.861 163.684H238.291C238.031 163.674 237.766 163.674 237.511 163.684H189.906C184.396 163.684 179.926 168.155 179.926 173.665C179.926 179.18 184.396 183.645 189.906 183.645H225.555L207.559 267.06C191.284 253.992 170.86 246.741 149.339 246.741C135.663 246.741 122.387 249.698 110.338 255.229L128.864 212.277C131.567 206.013 135.59 200.633 140.497 196.708C140.497 196.708 149.022 190.767 153.701 188.708C158.743 186.483 161.03 180.594 158.805 175.546C156.581 170.504 150.686 168.222 145.644 170.442C139.406 173.192 133.532 176.742 128.183 180.999C128.172 181.004 128.048 181.108 128.043 181.114C120.583 187.071 114.527 195.112 110.535 204.37L40.2195 367.37C40.1259 367.572 40.0376 367.775 39.9596 367.983L1.3163 457.558C1.3111 457.568 1.3059 457.584 1.30071 457.594C1.29551 457.61 1.29031 457.62 1.28511 457.636C0.739303 458.93 0.484591 460.282 0.500186 461.618V497.771C0.500186 504.102 4.25847 509.81 10.07 512.321C15.8712 514.821 22.5977 513.641 27.1929 509.301C45.0902 492.412 68.5132 483.112 93.1473 483.112C120.084 483.112 145.961 494.517 164.133 514.395C167.117 517.664 171.38 519.541 175.824 519.541C180.269 519.541 184.531 517.664 187.515 514.4C205.688 494.517 231.559 483.112 258.491 483.112C285.428 483.112 311.304 494.517 329.477 514.395C332.461 517.664 336.723 519.541 341.168 519.541C345.612 519.541 349.875 517.664 352.859 514.4C371.031 494.517 396.903 483.112 423.829 483.112C450.772 483.112 476.648 494.517 494.821 514.395C497.805 517.664 502.067 519.541 506.512 519.541C510.956 519.541 515.219 517.664 518.202 514.4C531.348 500.017 548.258 490.078 567.117 485.649C572.482 484.391 575.809 479.021 574.551 473.651C573.293 468.287 567.923 464.96 562.553 466.218C541.199 471.229 521.914 482.088 506.512 497.724C484.768 475.7 454.883 463.151 423.829 463.151C392.786 463.151 362.912 475.7 341.168 497.729C319.424 475.7 289.545 463.151 258.491 463.151C227.447 463.151 197.568 475.7 175.824 497.729C154.085 475.7 124.201 463.151 93.1473 463.151C66.5015 463.151 41.0252 472.165 20.4612 488.705V465.126C59.8686 419.575 130.694 421.405 168.053 467.772C168.193 467.887 170.221 470.787 174.364 471.385C178.106 471.91 181.553 470.392 183.694 467.653C202.049 444.942 229.303 431.921 258.491 431.921C286.114 431.921 312.126 442.483 333.589 468.006C333.729 468.173 333.849 468.303 333.979 468.433C334.218 468.687 334.54 468.984 334.785 469.181C336.531 470.637 338.886 471.562 341.443 471.489C343.861 471.411 346.044 470.512 347.749 469.015C347.874 468.906 348.019 468.776 348.139 468.656C348.305 468.49 348.419 468.375 348.57 468.204C348.705 468.053 348.783 467.965 348.924 467.788C348.929 467.783 348.934 467.778 348.939 467.772C367.299 444.989 394.595 431.921 423.829 431.921C473.903 431.921 500.04 469.113 499.905 468.994C507.915 476.037 515.759 466.483 514.117 467.975C556.882 417.828 625.233 422.798 661.875 465.126V488.7C645.844 475.798 626.834 467.455 606.379 464.414C600.937 463.619 595.853 467.367 595.042 472.82C594.231 478.273 597.994 483.351 603.447 484.162C622.894 487.047 640.77 495.744 655.143 509.295C659.738 513.636 666.46 514.821 672.261 512.321C678.077 509.81 681.831 504.102 681.831 497.771V461.618C681.851 460.282 681.597 458.93 681.051 457.636ZM170.033 441.028C133.215 408.409 79.237 402.655 36.352 426.738L57.7789 377.069C73.7841 359.52 96.6509 349.483 120.76 349.483C145.051 349.483 167.798 359.51 183.814 377.137L170.033 441.028ZM188.757 354.223C169.997 338.358 146.044 329.522 120.76 329.522C104.131 329.522 87.97 333.405 73.4982 340.625L94.9511 290.894C108.653 275.502 128.391 266.702 149.339 266.702C169.82 266.702 189.017 275.034 202.673 289.704L188.757 354.223ZM331.187 437.488C310.774 421.056 285.308 411.954 258.486 411.954C234.434 411.954 211.463 419.279 192.256 432.648L204.102 377.75C220.144 359.744 243.13 349.483 267.692 349.483C292.206 349.483 315.151 359.697 331.187 377.62V437.488ZM331.187 350.626C313.17 337.028 290.995 329.522 267.692 329.522C247.226 329.522 227.634 335.312 210.964 345.937L222.842 290.858C236.555 275.471 256.209 266.696 277.22 266.696C298.018 266.696 317.49 275.289 331.187 290.39V350.626ZM331.187 263.843C315.671 252.807 296.9 246.741 277.22 246.741C260.128 246.741 243.733 251.315 229.558 259.746L245.974 183.645H331.187V263.843ZM504.479 183.645C518.259 183.645 531.208 188.188 541.927 196.781C546.787 200.68 550.779 206.034 553.467 212.266L571.998 255.229C559.944 249.698 546.662 246.741 532.981 246.741C511.471 246.741 491.047 253.992 474.777 267.06L456.781 183.645H504.479ZM351.148 183.645H436.362L452.778 259.746C438.597 251.315 422.192 246.741 405.1 246.741C385.42 246.741 366.66 252.807 351.148 263.843V183.645ZM351.148 290.39C364.84 275.289 384.308 266.702 405.1 266.702C426.117 266.702 445.776 275.471 459.489 290.858L471.372 345.937C454.696 335.312 435.099 329.522 414.623 329.522C391.325 329.522 369.16 337.028 351.148 350.626V290.39ZM423.829 411.954C397.017 411.954 371.556 421.056 351.148 437.488V377.626C367.185 359.697 390.119 349.483 414.629 349.483C439.2 349.483 462.192 359.744 478.233 377.75L490.075 432.653C470.868 419.284 447.897 411.954 423.829 411.954ZM479.658 289.704C493.319 275.034 512.505 266.702 532.981 266.702C553.94 266.702 573.682 275.502 587.385 290.894L608.838 340.625C594.361 333.405 578.2 329.522 561.56 329.522C536.282 329.522 512.334 338.358 493.579 354.223L479.658 289.704ZM512.302 441.028L498.522 377.137C514.532 359.51 537.28 349.483 561.56 349.483C585.68 349.483 608.547 359.52 624.557 377.069L645.989 426.738C603.889 403.107 549.864 407.744 512.302 441.028Z" fill="#1F2937"/>
</g>
</g>
<defs>
<clipPath id="clip0_156864_598">
<rect width="682" height="682" fill="white" transform="translate(0.5)"/>
</clipPath>
</defs>
</svg>
