<svg width="682" height="682" viewBox="0 0 682 682" fill="none" xmlns="http://www.w3.org/2000/svg">
<g clip-path="url(#clip0_156849_325)">
<path d="M680.551 457.636C680.546 457.62 680.54 457.61 680.535 457.594C680.53 457.584 680.525 457.568 680.52 457.558L571.296 204.36C567.319 195.143 561.31 187.138 553.913 181.212C539.821 169.911 522.084 163.684 503.979 163.684H444.314C444.06 163.679 443.81 163.679 443.555 163.684H340.975C340.876 163.684 340.772 163.679 340.668 163.679C340.564 163.679 340.46 163.684 340.361 163.684H237.791C237.531 163.674 237.266 163.674 237.011 163.684H189.406C183.896 163.684 179.426 168.155 179.426 173.665C179.426 179.18 183.896 183.645 189.406 183.645H225.055L207.059 267.06C190.784 253.992 170.36 246.741 148.839 246.741C135.163 246.741 121.887 249.698 109.838 255.229L128.364 212.277C131.067 206.013 135.09 200.633 139.997 196.708C139.997 196.708 148.522 190.767 153.201 188.708C158.243 186.483 160.53 180.594 158.305 175.546C156.081 170.504 150.186 168.222 145.144 170.442C138.906 173.192 133.032 176.742 127.683 180.999C127.672 181.004 127.548 181.108 127.543 181.114C120.083 187.071 114.027 195.112 110.035 204.37L39.7193 367.37C39.6257 367.572 39.5374 367.775 39.4594 367.983L0.816117 457.558C0.810919 457.568 0.805721 457.584 0.800522 457.594C0.795324 457.61 0.790126 457.62 0.784928 457.636C0.23912 458.93 -0.0155917 460.282 2.88261e-06 461.618V497.771C2.88261e-06 504.102 3.75829 509.81 9.56985 512.321C15.371 514.821 22.0975 513.641 26.6927 509.301C44.59 492.412 68.013 483.112 92.6471 483.112C119.584 483.112 145.461 494.517 163.633 514.395C166.617 517.664 170.88 519.541 175.324 519.541C179.769 519.541 184.031 517.664 187.015 514.4C205.188 494.517 231.059 483.112 257.991 483.112C284.928 483.112 310.804 494.517 328.977 514.395C331.961 517.664 336.223 519.541 340.668 519.541C345.112 519.541 349.375 517.664 352.359 514.4C370.531 494.517 396.403 483.112 423.329 483.112C450.272 483.112 476.148 494.517 494.321 514.395C497.305 517.664 501.567 519.541 506.012 519.541C510.456 519.541 514.719 517.664 517.702 514.4C530.848 500.017 547.758 490.078 566.617 485.649C571.982 484.391 575.309 479.021 574.051 473.651C572.793 468.287 567.423 464.96 562.053 466.218C540.699 471.229 521.414 482.088 506.012 497.724C484.268 475.7 454.383 463.151 423.329 463.151C392.286 463.151 362.412 475.7 340.668 497.729C318.924 475.7 289.045 463.151 257.991 463.151C226.947 463.151 197.068 475.7 175.324 497.729C153.585 475.7 123.701 463.151 92.6471 463.151C66.0013 463.151 40.525 472.165 19.961 488.705V465.126C59.3684 419.575 130.194 421.405 167.553 467.772C167.693 467.887 169.721 470.787 173.864 471.385C177.606 471.91 181.053 470.392 183.194 467.653C201.549 444.942 228.803 431.921 257.991 431.921C285.614 431.921 311.626 442.483 333.089 468.006C333.229 468.173 333.349 468.303 333.479 468.433C333.718 468.687 334.04 468.984 334.285 469.181C336.031 470.637 338.386 471.562 340.943 471.489C343.361 471.411 345.544 470.512 347.249 469.015C347.374 468.906 347.519 468.776 347.639 468.656C347.805 468.49 347.919 468.375 348.07 468.204C348.205 468.053 348.283 467.965 348.424 467.788C348.429 467.783 348.434 467.778 348.439 467.772C366.799 444.989 394.095 431.921 423.329 431.921C473.403 431.921 499.54 469.113 499.405 468.994C507.415 476.037 515.259 466.483 513.617 467.975C556.382 417.828 624.733 422.798 661.375 465.126V488.7C645.344 475.798 626.334 467.455 605.879 464.414C600.437 463.619 595.353 467.367 594.542 472.82C593.731 478.273 597.494 483.351 602.947 484.162C622.394 487.047 640.27 495.744 654.643 509.295C659.238 513.636 665.96 514.821 671.761 512.321C677.577 509.81 681.331 504.102 681.331 497.771V461.618C681.351 460.282 681.097 458.93 680.551 457.636ZM169.533 441.028C132.715 408.409 78.7368 402.655 35.8518 426.738L57.2787 377.069C73.2839 359.52 96.1507 349.483 120.26 349.483C144.551 349.483 167.298 359.51 183.314 377.137L169.533 441.028ZM188.257 354.223C169.497 338.358 145.544 329.522 120.26 329.522C103.631 329.522 87.4698 333.405 72.998 340.625L94.4509 290.894C108.153 275.502 127.891 266.702 148.839 266.702C169.32 266.702 188.517 275.034 202.173 289.704L188.257 354.223ZM330.687 437.488C310.274 421.056 284.808 411.954 257.986 411.954C233.934 411.954 210.963 419.279 191.756 432.648L203.602 377.75C219.644 359.744 242.63 349.483 267.192 349.483C291.706 349.483 314.651 359.697 330.687 377.62V437.488ZM330.687 350.626C312.67 337.028 290.495 329.522 267.192 329.522C246.726 329.522 227.134 335.312 210.464 345.937L222.342 290.858C236.055 275.471 255.709 266.696 276.72 266.696C297.518 266.696 316.99 275.289 330.687 290.39V350.626ZM330.687 263.843C315.171 252.807 296.4 246.741 276.72 246.741C259.628 246.741 243.233 251.315 229.058 259.746L245.474 183.645H330.687V263.843ZM503.979 183.645C517.759 183.645 530.708 188.188 541.427 196.781C546.287 200.68 550.279 206.034 552.967 212.266L571.498 255.229C559.444 249.698 546.162 246.741 532.481 246.741C510.971 246.741 490.547 253.992 474.277 267.06L456.281 183.645H503.979ZM350.648 183.645H435.862L452.278 259.746C438.097 251.315 421.692 246.741 404.6 246.741C384.92 246.741 366.16 252.807 350.648 263.843V183.645ZM350.648 290.39C364.34 275.289 383.808 266.702 404.6 266.702C425.617 266.702 445.276 275.471 458.989 290.858L470.872 345.937C454.196 335.312 434.599 329.522 414.123 329.522C390.825 329.522 368.66 337.028 350.648 350.626V290.39ZM423.329 411.954C396.517 411.954 371.056 421.056 350.648 437.488V377.626C366.685 359.697 389.619 349.483 414.129 349.483C438.7 349.483 461.692 359.744 477.733 377.75L489.575 432.653C470.368 419.284 447.397 411.954 423.329 411.954ZM479.158 289.704C492.819 275.034 512.005 266.702 532.481 266.702C553.44 266.702 573.182 275.502 586.885 290.894L608.338 340.625C593.861 333.405 577.7 329.522 561.06 329.522C535.782 329.522 511.834 338.358 493.079 354.223L479.158 289.704ZM511.802 441.028L498.022 377.137C514.032 359.51 536.78 349.483 561.06 349.483C585.18 349.483 608.047 359.52 624.057 377.069L645.489 426.738C603.389 403.107 549.364 407.744 511.802 441.028Z" fill="white"/>
</g>
<defs>
<clipPath id="clip0_156849_325">
<rect width="681.333" height="681.333" fill="white"/>
</clipPath>
</defs>
</svg>
