<svg xmlns="http://www.w3.org/2000/svg" version="1.1" xmlns:xlink="http://www.w3.org/1999/xlink" width="512" height="512" x="0" y="0" viewBox="0 0 512 512" style="enable-background:new 0 0 512 512" xml:space="preserve" class=""><g><path d="M425.98 512h30.905v-30.905l-61.811-61.811z" style="" fill="#ad3d03" data-original="#439292" class="" opacity="1"></path><path d="M55.115 481.095V512H425.98v-92.716z" style="" fill="#ad3d03" data-original="#55c7c2" class="" opacity="1"></path><path d="m425.98 0-61.811 240.547 61.811 240.548h30.905V0z" style="" fill="#ad3d03" data-original="#55c7c2" class="" opacity="1"></path><path d="M425.98 481.095V0H256l-61.811 240.547L256 481.095z" style="" fill="#d94900" data-original="#66fcf1" class="" opacity="1"></path><path d="M256 481.095V0h-30.905l-61.811 240.547 61.811 240.548z" style="" fill="#fa5100" data-original="#abfff9" class="" opacity="1"></path><path d="M55.115 0v23.179l6.696 7.726-6.696 7.727v442.463h169.98V0z" style="" fill="#ffffff" data-original="#dbfffc" class="" opacity="1"></path><path d="M286.905 294.632a7.725 7.725 0 0 1-7.726-7.726V194.19c0-4.268 3.458-7.726 7.726-7.726s7.726 3.458 7.726 7.726v92.716a7.725 7.725 0 0 1-7.726 7.726z" style="" fill="#ad3d03" data-original="#325d63" class="" opacity="1"></path><path d="M225.095 294.632a7.725 7.725 0 0 1-7.726-7.726V194.19c0-4.268 3.459-7.726 7.726-7.726s7.726 3.458 7.726 7.726v92.716a7.726 7.726 0 0 1-7.726 7.726z" style="" fill="#ad3d03" data-original="#439292" class="" opacity="1"></path><path d="M163.284 99.928h-15.453V61.811c0-12.78-10.398-23.179-23.179-23.179H55.115V23.179h69.537c21.302 0 38.632 17.33 38.632 38.632v38.117z" style="" fill="#ad3d03" data-original="#62676f" class="" opacity="1"></path><path d="M155.557 179.767a7.725 7.725 0 0 1-7.726-7.726v-15.453a7.725 7.725 0 0 1 7.726-7.726 7.725 7.725 0 0 1 7.726 7.726v15.453a7.725 7.725 0 0 1-7.726 7.726zM124.652 179.767a7.725 7.725 0 0 1-7.726-7.726v-15.453a7.725 7.725 0 0 1 7.726-7.726 7.725 7.725 0 0 1 7.726 7.726v15.453a7.726 7.726 0 0 1-7.726 7.726zM186.463 179.767a7.725 7.725 0 0 1-7.726-7.726v-15.453c0-4.268 3.459-7.726 7.726-7.726s7.726 3.458 7.726 7.726v15.453a7.726 7.726 0 0 1-7.726 7.726zM155.557 226.125a7.725 7.725 0 0 1-7.726-7.726v-15.453a7.725 7.725 0 0 1 7.726-7.726 7.725 7.725 0 0 1 7.726 7.726v15.453a7.725 7.725 0 0 1-7.726 7.726zM124.652 226.125a7.725 7.725 0 0 1-7.726-7.726v-15.453a7.725 7.725 0 0 1 7.726-7.726 7.725 7.725 0 0 1 7.726 7.726v15.453a7.726 7.726 0 0 1-7.726 7.726zM186.463 226.125a7.725 7.725 0 0 1-7.726-7.726v-15.453c0-4.268 3.459-7.726 7.726-7.726s7.726 3.458 7.726 7.726v15.453a7.726 7.726 0 0 1-7.726 7.726zM155.557 272.483a7.725 7.725 0 0 1-7.726-7.726v-15.453a7.725 7.725 0 0 1 7.726-7.726 7.725 7.725 0 0 1 7.726 7.726v15.453a7.725 7.725 0 0 1-7.726 7.726zM124.652 272.483a7.725 7.725 0 0 1-7.726-7.726v-15.453a7.725 7.725 0 0 1 7.726-7.726 7.725 7.725 0 0 1 7.726 7.726v15.453a7.725 7.725 0 0 1-7.726 7.726zM186.463 272.483a7.725 7.725 0 0 1-7.726-7.726v-15.453c0-4.268 3.459-7.726 7.726-7.726s7.726 3.458 7.726 7.726v15.453a7.725 7.725 0 0 1-7.726 7.726zM155.557 318.841a7.725 7.725 0 0 1-7.726-7.726v-15.453a7.725 7.725 0 0 1 7.726-7.726 7.725 7.725 0 0 1 7.726 7.726v15.453a7.725 7.725 0 0 1-7.726 7.726zM124.652 318.841a7.725 7.725 0 0 1-7.726-7.726v-15.453a7.725 7.725 0 0 1 7.726-7.726 7.725 7.725 0 0 1 7.726 7.726v15.453a7.725 7.725 0 0 1-7.726 7.726zM186.463 318.841a7.725 7.725 0 0 1-7.726-7.726v-15.453c0-4.268 3.459-7.726 7.726-7.726s7.726 3.458 7.726 7.726v15.453a7.725 7.725 0 0 1-7.726 7.726zM155.557 365.199a7.725 7.725 0 0 1-7.726-7.726V342.02a7.725 7.725 0 0 1 7.726-7.726 7.725 7.725 0 0 1 7.726 7.726v15.453a7.725 7.725 0 0 1-7.726 7.726zM124.652 365.199a7.725 7.725 0 0 1-7.726-7.726V342.02a7.725 7.725 0 0 1 7.726-7.726 7.725 7.725 0 0 1 7.726 7.726v15.453a7.725 7.725 0 0 1-7.726 7.726zM186.463 365.199a7.725 7.725 0 0 1-7.726-7.726V342.02c0-4.268 3.459-7.726 7.726-7.726s7.726 3.458 7.726 7.726v15.453a7.725 7.725 0 0 1-7.726 7.726zM155.557 411.557a7.725 7.725 0 0 1-7.726-7.726v-15.453a7.725 7.725 0 0 1 7.726-7.726 7.725 7.725 0 0 1 7.726 7.726v15.453a7.725 7.725 0 0 1-7.726 7.726zM124.652 411.557a7.725 7.725 0 0 1-7.726-7.726v-15.453a7.725 7.725 0 0 1 7.726-7.726 7.725 7.725 0 0 1 7.726 7.726v15.453a7.725 7.725 0 0 1-7.726 7.726zM186.463 411.557a7.725 7.725 0 0 1-7.726-7.726v-15.453c0-4.268 3.459-7.726 7.726-7.726s7.726 3.458 7.726 7.726v15.453a7.725 7.725 0 0 1-7.726 7.726zM155.557 457.915a7.725 7.725 0 0 1-7.726-7.726v-15.453a7.725 7.725 0 0 1 7.726-7.726 7.725 7.725 0 0 1 7.726 7.726v15.453a7.725 7.725 0 0 1-7.726 7.726zM124.652 457.915a7.725 7.725 0 0 1-7.726-7.726v-15.453a7.725 7.725 0 0 1 7.726-7.726 7.725 7.725 0 0 1 7.726 7.726v15.453a7.725 7.725 0 0 1-7.726 7.726zM186.463 457.915a7.725 7.725 0 0 1-7.726-7.726v-15.453c0-4.268 3.459-7.726 7.726-7.726s7.726 3.458 7.726 7.726v15.453a7.725 7.725 0 0 1-7.726 7.726z" style="" fill="#ad3d03" data-original="#55c7c2" class="" opacity="1"></path><path d="m155.557 79.324-10.302 23.179 10.302 23.179h46.358c0-25.603-20.755-46.358-46.358-46.358z" style="" fill="#d94900" data-original="#83878c" class="" opacity="1"></path><path d="M109.199 125.682h46.358V79.324c-25.603 0-46.358 20.755-46.358 46.358z" style="" fill="#fa5100" data-original="#a4a6aa" class="" opacity="1"></path><path d="M207.066 133.408H104.048a7.725 7.725 0 0 1-7.726-7.726 7.725 7.725 0 0 1 7.726-7.726h103.018a7.725 7.725 0 0 1 7.726 7.726 7.725 7.725 0 0 1-7.726 7.726z" style="" fill="#ad3d03" data-original="#62676f" class="" opacity="1"></path></g></svg>