<svg width="684" height="683" viewBox="0 0 684 683" fill="none" xmlns="http://www.w3.org/2000/svg">
<g clip-path="url(#clip0_156864_611)">
<mask id="mask0_156864_611" style="mask-type:luminance" maskUnits="userSpaceOnUse" x="0" y="0" width="684" height="683">
<path d="M0.5 0.00012207H683.167V682.667H0.5V0.00012207Z" fill="white"/>
</mask>
<g mask="url(#mask0_156864_611)">
<path d="M124.92 581.285V632.686H73.7092V18.5726C73.7092 13.838 77.5466 10.0006 82.2812 10.0006H124.92V534.618" stroke="#1F2937" stroke-width="20" stroke-miterlimit="10" stroke-linecap="round" stroke-linejoin="round"/>
<path d="M571.55 87.0229V10.0002H601.386C606.12 10.0002 609.958 13.8375 609.958 18.5722V632.687H571.55V133.69" stroke="#1F2937" stroke-width="20" stroke-miterlimit="10" stroke-linecap="round" stroke-linejoin="round"/>
<path d="M571.549 47.416H124.92V10H571.549V47.416Z" stroke="#1F2937" stroke-width="20" stroke-miterlimit="10" stroke-linecap="round" stroke-linejoin="round"/>
<path d="M381.966 300.757V398.423" stroke="#1F2937" stroke-width="20" stroke-miterlimit="10" stroke-linecap="round" stroke-linejoin="round"/>
<path d="M456.797 300.757V398.423" stroke="#1F2937" stroke-width="20" stroke-miterlimit="10" stroke-linecap="round" stroke-linejoin="round"/>
<path d="M612.576 672.667H71.0908C68.0628 672.667 65.6082 670.212 65.6082 667.185V638.168C65.6082 635.14 68.0628 632.687 71.0908 632.687H612.576C615.604 632.687 618.058 635.14 618.058 638.168V667.185C618.058 670.212 615.604 672.667 612.576 672.667Z" stroke="#1F2937" stroke-width="20" stroke-miterlimit="10" stroke-linecap="round" stroke-linejoin="round"/>
<path d="M289.26 97.2534H255.042V47.4148H289.26V97.2534Z" stroke="#1F2937" stroke-width="20" stroke-miterlimit="10" stroke-linecap="round" stroke-linejoin="round"/>
<path d="M332.151 133.69H352.023C354.179 133.69 355.927 131.942 355.927 129.788V118.266C355.927 106.662 346.519 97.2544 334.915 97.2544H209.387C197.783 97.2544 188.375 106.662 188.375 118.266V129.788C188.375 131.942 190.123 133.69 192.278 133.69H285.484" stroke="#1F2937" stroke-width="20" stroke-miterlimit="10" stroke-linecap="round" stroke-linejoin="round"/>
<path d="M305.484 167.024V187.301" stroke="#1F2937" stroke-width="20" stroke-miterlimit="10" stroke-linecap="round" stroke-linejoin="round"/>
<path d="M305.484 220.634V240.911" stroke="#1F2937" stroke-width="20" stroke-miterlimit="10" stroke-linecap="round" stroke-linejoin="round"/>
<path d="M272.151 190.852V211.129" stroke="#1F2937" stroke-width="20" stroke-miterlimit="10" stroke-linecap="round" stroke-linejoin="round"/>
<path d="M272.151 244.462V264.74" stroke="#1F2937" stroke-width="20" stroke-miterlimit="10" stroke-linecap="round" stroke-linejoin="round"/>
<path d="M272.151 298.073V318.35" stroke="#1F2937" stroke-width="20" stroke-miterlimit="10" stroke-linecap="round" stroke-linejoin="round"/>
<path d="M338.818 298.073V318.35" stroke="#1F2937" stroke-width="20" stroke-miterlimit="10" stroke-linecap="round" stroke-linejoin="round"/>
<path d="M205.484 298.073V318.35" stroke="#1F2937" stroke-width="20" stroke-miterlimit="10" stroke-linecap="round" stroke-linejoin="round"/>
<path d="M338.818 190.852V211.129" stroke="#1F2937" stroke-width="20" stroke-miterlimit="10" stroke-linecap="round" stroke-linejoin="round"/>
<path d="M338.818 244.462V264.74" stroke="#1F2937" stroke-width="20" stroke-miterlimit="10" stroke-linecap="round" stroke-linejoin="round"/>
<path d="M205.484 190.852V211.129" stroke="#1F2937" stroke-width="20" stroke-miterlimit="10" stroke-linecap="round" stroke-linejoin="round"/>
<path d="M205.484 244.462V264.74" stroke="#1F2937" stroke-width="20" stroke-miterlimit="10" stroke-linecap="round" stroke-linejoin="round"/>
<path d="M305.484 274.244V294.521" stroke="#1F2937" stroke-width="20" stroke-miterlimit="10" stroke-linecap="round" stroke-linejoin="round"/>
<path d="M238.817 167.024V187.301" stroke="#1F2937" stroke-width="20" stroke-miterlimit="10" stroke-linecap="round" stroke-linejoin="round"/>
<path d="M238.817 220.634V240.911" stroke="#1F2937" stroke-width="20" stroke-miterlimit="10" stroke-linecap="round" stroke-linejoin="round"/>
<path d="M238.817 274.244V294.521" stroke="#1F2937" stroke-width="20" stroke-miterlimit="10" stroke-linecap="round" stroke-linejoin="round"/>
<path d="M419.382 47.4154V595.271" stroke="#1F2937" stroke-width="20" stroke-miterlimit="10" stroke-linecap="round" stroke-linejoin="round"/>
<path d="M124.92 595.272H571.549" stroke="#1F2937" stroke-width="20" stroke-miterlimit="10" stroke-linecap="round" stroke-linejoin="round"/>
</g>
</g>
<defs>
<clipPath id="clip0_156864_611">
<rect width="682.667" height="682.667" fill="white" transform="translate(0.5)"/>
</clipPath>
</defs>
</svg>
