<svg width="512" height="512" viewBox="0 0 512 512" fill="none" xmlns="http://www.w3.org/2000/svg">
<path d="M504.499 179.072C508.642 179.072 511.999 175.715 511.999 171.572V126.729C512.038 123.951 510.428 120.885 507.407 119.658L271.296 14.1916C266.482 12.0407 261.318 10.9587 256.151 10.9387C256.101 10.9377 256.052 10.9307 256.001 10.9307C255.95 10.9307 255.903 10.9377 255.852 10.9387C250.685 10.9597 245.521 12.0417 240.708 14.1916L4.59595 119.658C2.04397 120.751 -0.104004 123.472 0.00399495 126.729V171.572C0.00399495 175.715 3.36096 179.072 7.50392 179.072H28.3547V412.07H7.50392C3.36096 412.07 0.00399495 415.427 0.00399495 419.57V446.569C0.00399495 450.712 3.36096 454.069 7.50392 454.069H18.5038V493.569C18.5038 497.712 21.8608 501.069 26.0037 501.069H485.999C490.142 501.069 493.499 497.712 493.499 493.569V454.069H504.499C508.642 454.069 511.999 450.712 511.999 446.569V419.57C511.999 415.427 508.642 412.07 504.499 412.07H483.648V179.072H504.499ZM361.725 119.073L282.727 35.7254L469.32 119.073H361.725ZM170.944 119.073L248.502 37.2464V119.073H170.944ZM42.6836 119.073L229.276 35.7264L150.279 119.073H42.6836ZM263.501 37.2454L341.059 119.072H263.501V37.2454ZM43.3546 179.072H56.3544V412.07H43.3546V179.072ZM496.999 439.069H358.5C354.358 439.069 351.001 442.426 351.001 446.569C351.001 450.712 354.358 454.069 358.5 454.069H478.499V486.069H33.5037V454.069H323.501C327.644 454.069 331.001 450.712 331.001 446.569C331.001 442.426 327.644 439.069 323.501 439.069H15.0038V427.07H496.999V439.069ZM149.003 397.07V412.07H119.003V397.07H149.003ZM203.502 372.07H308.501V382.07H203.502V372.07ZM180.002 327.071C176.97 327.071 174.502 324.603 174.502 321.571C174.502 318.539 176.97 316.071 180.002 316.071H332.001C335.033 316.071 337.501 318.539 337.501 321.571C337.501 324.603 335.033 327.071 332.001 327.071H180.002ZM308.501 342.07V357.07H203.502V342.07H308.501ZM203.502 397.07H308.501V412.07H203.502V397.07ZM404.957 382.07H351.043V371.862C351.043 369.381 353.062 367.362 355.543 367.362H381.457C388.35 367.362 393.957 361.755 393.957 354.862L393.958 291.167C393.958 287.031 397.322 283.667 401.458 283.667H404.958L404.957 382.07ZM393 397.07V412.07H363V397.07H393ZM468.648 412.07H455.649V324.787C455.649 320.644 452.292 317.287 448.149 317.287C444.006 317.287 440.649 320.644 440.649 324.787V412.07H408V397.07H412.457C416.6 397.07 419.957 393.713 419.957 389.57L419.958 276.167C419.958 274.178 419.168 272.271 417.762 270.863C416.355 269.457 414.448 268.667 412.458 268.667H401.458C389.052 268.667 378.958 278.761 378.958 291.167L378.957 352.362H355.543C344.791 352.362 336.043 361.11 336.043 371.862V389.57C336.043 393.713 339.4 397.07 343.543 397.07H348.001V412.07H323.501V342.07H332.001C343.305 342.07 352.501 332.875 352.501 321.571C352.501 310.267 343.305 301.071 332.001 301.071H180.002C168.698 301.071 159.502 310.267 159.502 321.571C159.502 332.875 168.698 342.07 180.002 342.07H188.502V412.07H164.002V397.07H168.459C172.602 397.07 175.959 393.713 175.959 389.57V371.862C175.959 361.11 167.211 352.362 156.459 352.362H133.045V291.167C133.045 278.761 122.951 268.667 110.545 268.667H99.545C95.4021 268.667 92.0451 272.024 92.0451 276.167V327.319C92.0451 331.462 95.4021 334.818 99.545 334.818C103.688 334.818 107.045 331.462 107.045 327.319V283.667H110.545C114.681 283.667 118.045 287.031 118.045 291.167V354.862C118.045 361.755 123.652 367.362 130.545 367.362H156.459C158.94 367.362 160.959 369.381 160.959 371.862V382.07H107.045V362.318C107.045 358.175 103.688 354.818 99.545 354.818C95.4021 354.818 92.0451 358.175 92.0451 362.318V389.57C92.0451 393.713 95.4021 397.07 99.545 397.07H104.003V412.07H71.3543V179.072H169.024C173.167 179.072 176.524 175.715 176.524 171.572C176.524 167.429 173.167 164.072 169.024 164.072H15.0038V134.072H496.999V164.072H204.023C199.88 164.072 196.523 167.429 196.523 171.572C196.523 175.715 199.88 179.072 204.023 179.072H248.502V190.165C225.693 193.775 208.196 213.569 208.196 237.377V237.997C208.196 242.14 211.553 245.497 215.696 245.497H224.252C227.435 260.101 240.458 271.071 256.001 271.071C271.545 271.071 284.568 260.1 287.751 245.497H296.307C300.45 245.497 303.807 242.14 303.807 237.997V237.377C303.807 213.569 286.311 193.775 263.501 190.165V179.072H440.649V289.787C440.649 293.93 444.006 297.287 448.149 297.287C452.292 297.287 455.649 293.93 455.649 289.787V179.072H468.648V412.07ZM223.922 230.497C227.093 215.7 240.273 204.571 256.001 204.571C271.73 204.571 284.91 215.7 288.081 230.497H223.922ZM272.065 245.496C269.376 251.709 263.19 256.07 256.001 256.07C248.813 256.07 242.627 251.709 239.938 245.496H272.065Z" fill="white"/>
</svg>
