<svg width="513" height="512" viewBox="0 0 513 512" fill="none" xmlns="http://www.w3.org/2000/svg">
<g clip-path="url(#clip0_156864_558)">
<path d="M504.999 179.072C509.142 179.072 512.499 175.715 512.499 171.572V126.729C512.538 123.951 510.928 120.885 507.907 119.658L271.796 14.1916C266.982 12.0407 261.818 10.9587 256.651 10.9387C256.601 10.9377 256.552 10.9307 256.501 10.9307C256.45 10.9307 256.403 10.9377 256.352 10.9387C251.185 10.9597 246.021 12.0417 241.208 14.1916L5.09586 119.658C2.54388 120.751 0.395904 123.472 0.503903 126.729V171.572C0.503903 175.715 3.86087 179.072 8.00383 179.072H28.8546V412.07H8.00383C3.86087 412.07 0.503903 415.427 0.503903 419.57V446.569C0.503903 450.712 3.86087 454.069 8.00383 454.069H19.0037V493.569C19.0037 497.712 22.3607 501.069 26.5036 501.069H486.499C490.642 501.069 493.999 497.712 493.999 493.569V454.069H504.999C509.142 454.069 512.499 450.712 512.499 446.569V419.57C512.499 415.427 509.142 412.07 504.999 412.07H484.148V179.072H504.999ZM362.225 119.073L283.227 35.7254L469.82 119.073H362.225ZM171.444 119.073L249.002 37.2464V119.073H171.444ZM43.1835 119.073L229.776 35.7264L150.779 119.073H43.1835ZM264.001 37.2454L341.559 119.072H264.001V37.2454ZM43.8545 179.072H56.8543V412.07H43.8545V179.072ZM497.499 439.069H359C354.858 439.069 351.501 442.426 351.501 446.569C351.501 450.712 354.858 454.069 359 454.069H478.999V486.069H34.0036V454.069H324.001C328.144 454.069 331.501 450.712 331.501 446.569C331.501 442.426 328.144 439.069 324.001 439.069H15.5037V427.07H497.499V439.069ZM149.503 397.07V412.07H119.503V397.07H149.503ZM204.002 372.07H309.001V382.07H204.002V372.07ZM180.502 327.071C177.47 327.071 175.002 324.603 175.002 321.571C175.002 318.539 177.47 316.071 180.502 316.071H332.501C335.533 316.071 338.001 318.539 338.001 321.571C338.001 324.603 335.533 327.071 332.501 327.071H180.502ZM309.001 342.07V357.07H204.002V342.07H309.001ZM204.002 397.07H309.001V412.07H204.002V397.07ZM405.457 382.07H351.543V371.862C351.543 369.381 353.562 367.362 356.043 367.362H381.957C388.85 367.362 394.457 361.755 394.457 354.862L394.458 291.167C394.458 287.031 397.822 283.667 401.958 283.667H405.458L405.457 382.07ZM393.5 397.07V412.07H363.5V397.07H393.5ZM469.148 412.07H456.149V324.787C456.149 320.644 452.792 317.287 448.649 317.287C444.506 317.287 441.149 320.644 441.149 324.787V412.07H408.5V397.07H412.957C417.1 397.07 420.457 393.713 420.457 389.57L420.458 276.167C420.458 274.178 419.668 272.271 418.262 270.863C416.855 269.457 414.948 268.667 412.958 268.667H401.958C389.552 268.667 379.458 278.761 379.458 291.167L379.457 352.362H356.043C345.291 352.362 336.543 361.11 336.543 371.862V389.57C336.543 393.713 339.9 397.07 344.043 397.07H348.501V412.07H324.001V342.07H332.501C343.805 342.07 353.001 332.875 353.001 321.571C353.001 310.267 343.805 301.071 332.501 301.071H180.502C169.198 301.071 160.002 310.267 160.002 321.571C160.002 332.875 169.198 342.07 180.502 342.07H189.002V412.07H164.502V397.07H168.959C173.102 397.07 176.459 393.713 176.459 389.57V371.862C176.459 361.11 167.711 352.362 156.959 352.362H133.545V291.167C133.545 278.761 123.451 268.667 111.045 268.667H100.045C95.902 268.667 92.545 272.024 92.545 276.167V327.319C92.545 331.462 95.902 334.818 100.045 334.818C104.188 334.818 107.545 331.462 107.545 327.319V283.667H111.045C115.181 283.667 118.545 287.031 118.545 291.167V354.862C118.545 361.755 124.152 367.362 131.045 367.362H156.959C159.44 367.362 161.459 369.381 161.459 371.862V382.07H107.545V362.318C107.545 358.175 104.188 354.818 100.045 354.818C95.902 354.818 92.545 358.175 92.545 362.318V389.57C92.545 393.713 95.902 397.07 100.045 397.07H104.503V412.07H71.8542V179.072H169.524C173.667 179.072 177.024 175.715 177.024 171.572C177.024 167.429 173.667 164.072 169.524 164.072H15.5037V134.072H497.499V164.072H204.523C200.38 164.072 197.023 167.429 197.023 171.572C197.023 175.715 200.38 179.072 204.523 179.072H249.002V190.165C226.193 193.775 208.696 213.569 208.696 237.377V237.997C208.696 242.14 212.053 245.497 216.196 245.497H224.752C227.935 260.101 240.958 271.071 256.501 271.071C272.045 271.071 285.068 260.1 288.251 245.497H296.807C300.95 245.497 304.307 242.14 304.307 237.997V237.377C304.307 213.569 286.811 193.775 264.001 190.165V179.072H441.149V289.787C441.149 293.93 444.506 297.287 448.649 297.287C452.792 297.287 456.149 293.93 456.149 289.787V179.072H469.148V412.07ZM224.422 230.497C227.593 215.7 240.773 204.571 256.501 204.571C272.23 204.571 285.41 215.7 288.581 230.497H224.422ZM272.565 245.496C269.876 251.709 263.69 256.07 256.501 256.07C249.313 256.07 243.127 251.709 240.438 245.496H272.565Z" fill="#1F2937"/>
</g>
<defs>
<clipPath id="clip0_156864_558">
<rect width="512" height="512" fill="white" transform="translate(0.5)"/>
</clipPath>
</defs>
</svg>
