<svg width="513" height="512" viewBox="0 0 513 512" fill="none" xmlns="http://www.w3.org/2000/svg">
<g clip-path="url(#clip0_156864_604)">
<mask id="mask0_156864_604" style="mask-type:luminance" maskUnits="userSpaceOnUse" x="0" y="0" width="513" height="512">
<path d="M512.5 0H0.5V512H512.5V0Z" fill="white"/>
</mask>
<g mask="url(#mask0_156864_604)">
<path d="M356.862 60.4181C352.807 48.2531 341.468 40.0801 328.645 40.0801C315.823 40.0801 304.483 48.2531 300.428 60.4181L242.458 234.329C239.551 243.049 240.967 252.326 246.341 259.783C251.715 267.24 260.069 271.516 269.26 271.516H280.549C284.691 271.516 288.049 268.158 288.049 264.016C288.049 259.874 284.691 256.516 280.549 256.516H269.26C264.948 256.516 261.03 254.51 258.509 251.013C255.988 247.515 255.324 243.164 256.688 239.074L314.658 65.1621C316.668 59.1321 322.289 55.0811 328.645 55.0811C335.001 55.0811 340.622 59.1321 342.632 65.1621L400.603 239.074C401.966 243.164 401.302 247.516 398.782 251.013C396.261 254.511 392.343 256.516 388.031 256.516H352.178V215.92C352.178 202.944 341.621 192.388 328.646 192.388C315.671 192.388 305.114 202.945 305.114 215.92V290.523C300.339 293.172 297.097 298.261 297.097 304.097V322.589C292.323 325.238 289.081 330.327 289.081 336.162V472.436C289.081 494.252 306.83 512 328.645 512C350.46 512 368.209 494.251 368.209 472.436V336.162C368.209 330.326 364.967 325.237 360.193 322.588V304.097C360.193 298.261 356.951 293.172 352.177 290.523V271.516H388.03C397.221 271.516 405.575 267.24 410.949 259.783C416.323 252.327 417.739 243.05 414.832 234.33L356.862 60.4181ZM345.193 304.097V320.646H312.096V304.097C312.096 303.813 312.327 303.582 312.61 303.581H312.612H312.622H344.667H344.677H344.679C344.962 303.582 345.193 303.813 345.193 304.097ZM328.644 207.388C333.349 207.388 337.176 211.216 337.176 215.92V288.581H320.112V215.92C320.112 211.215 323.94 207.388 328.644 207.388ZM353.209 472.436C353.209 485.981 342.189 497 328.645 497C315.101 497 304.081 485.98 304.081 472.436V336.162C304.081 335.877 304.312 335.646 304.597 335.646H352.694C352.979 335.646 353.21 335.877 353.21 336.162L353.209 472.436Z" fill="#1F2937"/>
<path d="M439.953 197.468L385.494 37.663C377.817 15.136 356.669 0 332.869 0H105.553C88.0019 0 73.5659 13.117 72.6889 29.863C72.2309 38.614 75.2919 46.924 81.3069 53.262C87.2379 59.512 95.5789 63.096 104.193 63.096H151.432C155.987 63.096 160.057 66.19 160.7 70.14C161.12 72.722 160.444 75.212 158.795 77.15C157.168 79.063 154.797 80.16 152.29 80.16H145.132C133.229 80.16 122.879 88.601 121.058 99.795C119.936 106.69 121.862 113.665 126.342 118.932C130.824 124.202 137.36 127.224 144.273 127.224H231.592C236.147 127.224 240.217 130.318 240.86 134.268C241.28 136.85 240.604 139.339 238.955 141.278C237.328 143.191 234.957 144.288 232.45 144.288H200.386C187.41 144.288 176.854 154.845 176.854 167.82C176.854 180.795 187.411 191.352 200.386 191.352H232.45C236.592 191.352 239.95 187.994 239.95 183.852C239.95 179.71 236.592 176.352 232.45 176.352H200.386C195.681 176.352 191.854 172.524 191.854 167.82C191.854 163.116 195.682 159.288 200.386 159.288H232.45C239.364 159.288 245.899 156.266 250.381 150.995C254.861 145.728 256.787 138.753 255.665 131.859C253.844 120.665 243.495 112.223 231.591 112.223H144.272C141.765 112.223 139.395 111.126 137.767 109.213C136.119 107.275 135.442 104.785 135.862 102.202C136.505 98.252 140.575 95.158 145.13 95.158H152.288C159.202 95.158 165.737 92.136 170.219 86.866C174.699 81.599 176.625 74.624 175.504 67.73C173.683 56.536 163.334 48.094 151.43 48.094H104.191C99.6069 48.094 95.3429 46.261 92.1849 42.934C89.0299 39.61 87.4259 35.246 87.6659 30.644C88.1199 22.02 96.1429 15 105.553 15H332.868C350.246 15 365.689 26.052 371.295 42.502L425.754 202.307C426.817 205.426 429.731 207.39 432.853 207.39C433.655 207.39 434.471 207.26 435.273 206.987C439.194 205.65 441.289 201.389 439.953 197.468Z" fill="#1F2937"/>
</g>
</g>
<defs>
<clipPath id="clip0_156864_604">
<rect width="512" height="512" fill="white" transform="translate(0.5)"/>
</clipPath>
</defs>
</svg>
