<svg width="512" height="512" viewBox="0 0 512 512" fill="none" xmlns="http://www.w3.org/2000/svg">
<g clip-path="url(#clip0_156849_402)">
<path d="M356.362 60.4181C352.307 48.2531 340.968 40.0801 328.145 40.0801C315.323 40.0801 303.983 48.2531 299.928 60.4181L241.958 234.329C239.051 243.049 240.467 252.326 245.841 259.783C251.215 267.24 259.569 271.516 268.76 271.516H280.049C284.191 271.516 287.549 268.158 287.549 264.016C287.549 259.874 284.191 256.516 280.049 256.516H268.76C264.448 256.516 260.53 254.51 258.009 251.013C255.488 247.515 254.824 243.164 256.188 239.074L314.158 65.1621C316.168 59.1321 321.789 55.0811 328.145 55.0811C334.501 55.0811 340.122 59.1321 342.132 65.1621L400.103 239.074C401.466 243.164 400.802 247.516 398.282 251.013C395.761 254.511 391.843 256.516 387.531 256.516H351.678V215.92C351.678 202.944 341.121 192.388 328.146 192.388C315.171 192.388 304.614 202.945 304.614 215.92V290.523C299.839 293.172 296.597 298.261 296.597 304.097V322.589C291.823 325.238 288.581 330.327 288.581 336.162V472.436C288.581 494.252 306.33 512 328.145 512C349.96 512 367.709 494.251 367.709 472.436V336.162C367.709 330.326 364.467 325.237 359.693 322.588V304.097C359.693 298.261 356.451 293.172 351.677 290.523V271.516H387.53C396.721 271.516 405.075 267.24 410.449 259.783C415.823 252.327 417.239 243.05 414.332 234.33L356.362 60.4181ZM344.693 304.097V320.646H311.596V304.097C311.596 303.813 311.827 303.582 312.11 303.581H312.112H312.122H344.167H344.177H344.179C344.462 303.582 344.693 303.813 344.693 304.097ZM328.144 207.388C332.849 207.388 336.676 211.216 336.676 215.92V288.581H319.612V215.92C319.612 211.215 323.44 207.388 328.144 207.388ZM352.709 472.436C352.709 485.981 341.689 497 328.145 497C314.601 497 303.581 485.98 303.581 472.436V336.162C303.581 335.877 303.812 335.646 304.097 335.646H352.194C352.479 335.646 352.71 335.877 352.71 336.162L352.709 472.436Z" fill="white"/>
<path d="M439.453 197.468L384.994 37.663C377.317 15.136 356.169 0 332.369 0H105.053C87.502 0 73.066 13.117 72.189 29.863C71.731 38.614 74.792 46.924 80.807 53.262C86.738 59.512 95.079 63.096 103.693 63.096H150.932C155.487 63.096 159.557 66.19 160.2 70.14C160.62 72.722 159.944 75.212 158.295 77.15C156.668 79.063 154.297 80.16 151.79 80.16H144.632C132.729 80.16 122.379 88.601 120.558 99.795C119.436 106.69 121.362 113.665 125.842 118.932C130.324 124.202 136.86 127.224 143.773 127.224H231.092C235.647 127.224 239.717 130.318 240.36 134.268C240.78 136.85 240.104 139.339 238.455 141.278C236.828 143.191 234.457 144.288 231.95 144.288H199.886C186.91 144.288 176.354 154.845 176.354 167.82C176.354 180.795 186.911 191.352 199.886 191.352H231.95C236.092 191.352 239.45 187.994 239.45 183.852C239.45 179.71 236.092 176.352 231.95 176.352H199.886C195.181 176.352 191.354 172.524 191.354 167.82C191.354 163.116 195.182 159.288 199.886 159.288H231.95C238.864 159.288 245.399 156.266 249.881 150.995C254.361 145.728 256.287 138.753 255.165 131.859C253.344 120.665 242.995 112.223 231.091 112.223H143.772C141.265 112.223 138.895 111.126 137.267 109.213C135.619 107.275 134.942 104.785 135.362 102.202C136.005 98.252 140.075 95.158 144.63 95.158H151.788C158.702 95.158 165.237 92.136 169.719 86.866C174.199 81.599 176.125 74.624 175.004 67.73C173.183 56.536 162.834 48.094 150.93 48.094H103.691C99.107 48.094 94.843 46.261 91.685 42.934C88.53 39.61 86.926 35.246 87.166 30.644C87.62 22.02 95.643 15 105.053 15H332.368C349.746 15 365.189 26.052 370.795 42.502L425.254 202.307C426.317 205.426 429.231 207.39 432.353 207.39C433.155 207.39 433.971 207.26 434.773 206.987C438.694 205.65 440.789 201.389 439.453 197.468Z" fill="white"/>
</g>
<defs>
<clipPath id="clip0_156849_402">
<rect width="512" height="512" fill="white"/>
</clipPath>
</defs>
</svg>
