<svg width="356" height="421" viewBox="0 0 356 421" fill="none" xmlns="http://www.w3.org/2000/svg">
<path fill-rule="evenodd" clip-rule="evenodd" d="M310.158 34.296C315.329 47.769 323.116 58.691 332.623 65.588C323.116 72.49 315.329 83.402 310.158 96.885C304.991 83.402 297.205 72.49 287.693 65.588C297.205 58.681 304.992 47.769 310.158 34.296ZM272.11 71.605C288.403 77.19 301.147 98.829 303.83 125.45C304.584 133.019 315.726 133.019 316.492 125.45C319.175 98.829 331.919 77.19 348.212 71.605C353.925 69.649 353.92 61.525 348.212 59.566C331.92 53.986 319.175 32.352 316.492 5.726C316.161 2.474 313.425 0 310.159 0C306.893 0 304.151 2.474 303.821 5.726C301.148 32.347 288.404 53.986 272.111 59.566C266.403 61.525 266.397 69.65 272.11 71.605ZM205.662 54.01C208.282 58.905 211.577 63.089 215.393 66.322C211.577 69.564 208.282 73.744 205.662 78.643C203.037 73.744 199.737 69.564 195.926 66.322C199.737 63.089 203.038 58.904 205.662 54.01ZM181.301 72.387C190.531 75.313 197.778 86.871 199.329 101.152C200.153 108.654 211.171 108.664 211.981 101.152C213.536 86.872 220.793 75.313 230.023 72.397C235.924 70.528 235.905 62.114 230.023 60.251C220.793 57.335 213.536 45.776 211.981 31.496C211.171 23.985 200.154 23.995 199.329 31.496C197.779 45.776 190.531 57.335 181.301 60.251C175.392 62.122 175.403 70.537 181.301 72.387ZM159.493 316.997C155.765 309.215 150.661 302.736 144.586 298.138C150.662 293.53 155.765 287.056 159.493 279.274C163.226 287.056 168.324 293.53 174.41 298.138C168.324 302.736 163.225 309.215 159.493 316.997ZM189.885 292.053C177.535 288.252 167.857 273.461 165.821 255.259C164.979 247.772 154 247.771 153.169 255.259C151.132 273.462 141.46 288.252 129.105 292.053C123.141 293.887 123.137 302.384 129.105 304.219C141.46 308.02 151.133 322.806 153.169 341.013C154 348.5 164.979 348.499 165.821 341.013C167.857 322.806 177.535 308.02 189.885 304.219C195.847 302.385 195.844 293.884 189.885 292.053ZM85.695 256.761V325.221C85.695 328.735 82.852 331.583 79.328 331.583C75.819 331.583 72.966 328.735 72.966 325.221V256.761C72.966 253.247 75.819 250.399 79.328 250.399C82.852 250.398 85.695 253.247 85.695 256.761ZM85.695 351.652V370.005C85.695 373.519 82.852 376.372 79.328 376.372C75.819 376.372 72.966 373.519 72.966 370.005V351.652C72.966 348.143 75.819 345.29 79.328 345.29C82.852 345.29 85.695 348.143 85.695 351.652ZM12.725 385.807V404.155C12.725 407.664 9.877 410.517 6.363 410.517C2.839 410.517 0 407.664 0 404.155V385.807C0 382.288 2.839 379.445 6.363 379.445C9.876 379.445 12.725 382.288 12.725 385.807ZM48.97 357.655V375.999C48.97 379.513 46.117 382.361 42.603 382.361C39.094 382.361 36.241 379.513 36.241 375.999V357.655C36.241 354.131 39.094 351.288 42.603 351.288C46.116 351.288 48.97 354.131 48.97 357.655ZM329.44 197.857C321.188 209.697 310.085 216.691 298.234 216.429C232.456 216.429 166.678 216.429 100.899 216.429C117.245 201.655 125.791 177.729 126.655 154.249H343.049C342.364 170.803 337.596 186.162 329.44 197.857ZM285.856 290.658L240.318 336.191C239.127 337.387 238.456 339.01 238.456 340.692V407.3H225.415V332.657L270.958 287.124C272.154 285.924 272.825 284.31 272.825 282.623V229.157H285.856V290.658ZM67.347 216.326C79.841 217.255 91.448 210.565 100.306 197.856C109.563 184.574 114.355 166.757 113.983 148.011C113.912 144.442 116.785 141.517 120.34 141.517H242.125C242.48 136.861 243.122 132.277 244.064 127.806H27.977C22.815 149.15 25.333 173.778 35.569 192.183C40.065 188.061 44.945 184.265 50.18 180.863C53.126 178.948 57.072 179.789 58.982 182.734C60.897 185.684 60.056 189.621 57.116 191.541C51.983 194.875 47.235 198.628 42.904 202.74C46.126 206.439 49.631 209.443 53.33 211.674C58.506 206.493 64.699 202.206 71.712 199.168C74.934 197.768 78.682 199.251 80.087 202.478C81.477 205.7 79.999 209.443 76.777 210.843C73.374 212.321 70.215 214.173 67.347 216.326ZM355.837 147.754C356.244 169.203 350.685 189.636 339.885 205.137C328.982 220.785 314.444 229.158 298.585 229.158V293.292C298.585 294.979 297.914 296.602 296.718 297.798L251.185 343.331V408.379C251.185 414.8 245.95 420.03 239.525 420.03H224.346C217.925 420.03 212.686 414.8 212.686 408.379V330.023C212.686 328.336 213.357 326.713 214.553 325.517L260.096 279.984V229.158H69.699C65.334 229.158 61.062 228.492 56.926 227.204C51.847 234.64 48.969 243.521 48.969 252.858V331.214C48.969 334.723 46.116 337.576 42.602 337.576C39.093 337.576 36.24 334.723 36.24 331.214V252.858C36.24 241.596 39.506 230.854 45.319 221.697C41.382 219.136 37.659 215.942 34.213 212.141C20.467 229.138 12.725 250.427 12.725 272.863V359.365C12.725 362.879 9.877 365.732 6.363 365.732C2.839 365.732 0 362.879 0 359.365V272.863C0 246.354 9.527 221.283 26.378 201.661C12.06 178.559 8.947 146.527 17.012 119.616C17.819 116.928 20.298 115.076 23.107 115.076H252.236C256.503 115.076 259.563 119.193 258.341 123.266C256.591 129.104 255.439 135.223 254.895 141.517H349.476C352.945 141.518 355.769 144.294 355.837 147.754Z" fill="#1F2937"/>
</svg>
