<svg width="513" height="512" viewBox="0 0 513 512" fill="none" xmlns="http://www.w3.org/2000/svg">
<path d="M235.217 60.1406H107.918C100.198 60.1406 93.917 66.4216 93.917 74.1416V233.13C93.917 240.85 100.198 247.131 107.918 247.131H235.217C242.937 247.131 249.218 240.85 249.218 233.13V74.1416C249.218 66.4216 242.937 60.1406 235.217 60.1406ZM234.645 232.557H108.49V74.7136H234.645V232.557Z" fill="#1F2937"/>
<path d="M235.217 263.639H107.918C100.198 263.639 93.917 269.92 93.917 277.64V436.627C93.917 444.348 100.198 450.628 107.918 450.628H235.217C242.937 450.628 249.218 444.347 249.218 436.627V277.64C249.218 269.92 242.937 263.639 235.217 263.639ZM234.645 436.056H108.49V278.213H234.645V436.056Z" fill="#1F2937"/>
<path d="M405.082 60.1406H277.784C270.063 60.1406 263.782 66.4216 263.782 74.1416V233.13C263.782 240.85 270.063 247.131 277.784 247.131H405.082C412.803 247.131 419.084 240.85 419.084 233.13V74.1416C419.083 66.4216 412.803 60.1406 405.082 60.1406ZM404.51 232.557H278.355V74.7136H404.51V232.557Z" fill="#1F2937"/>
<path d="M405.082 263.639H277.784C270.063 263.639 263.782 269.92 263.782 277.64V436.627C263.782 444.348 270.063 450.628 277.784 450.628H405.082C412.803 450.628 419.084 444.347 419.084 436.627V277.64C419.083 269.92 412.803 263.639 405.082 263.639ZM404.51 436.056H278.355V278.213H404.51V436.056Z" fill="#1F2937"/>
<path d="M494.022 459.598H479.225V110.088C479.225 106.064 475.963 102.801 471.938 102.801C467.913 102.801 464.651 106.063 464.651 110.088V459.598H447.261V47.6709C447.261 39.0089 440.214 31.9619 431.552 31.9619H81.447C72.785 31.9619 65.738 39.0089 65.738 47.6709V459.598H48.348V387.756C48.348 383.732 45.086 380.469 41.061 380.469C37.036 380.469 33.774 383.731 33.774 387.756V459.598H18.978C10.925 459.598 4.37402 466.15 4.37402 474.202V497.396C4.37402 505.449 10.926 512 18.978 512H494.022C502.075 512 508.626 505.448 508.626 497.396V474.202C508.626 466.149 502.075 459.598 494.022 459.598ZM80.311 47.6709C80.311 47.0449 80.82 46.5349 81.447 46.5349H431.553C432.179 46.5349 432.689 47.0439 432.689 47.6709V459.598H80.311V47.6709ZM494.036 497.426C494.036 497.426 494.032 497.427 494.022 497.427L18.947 497.396L18.978 474.171L494.053 474.202L494.036 497.426Z" fill="#1F2937"/>
<path d="M465.476 0H47.5239C39.9429 0 33.7749 6.167 33.7749 13.749V353.165C33.7749 357.188 37.0369 360.451 41.0619 360.451C45.0859 360.451 48.3489 357.189 48.3489 353.164V14.573H464.653V75.415C464.653 79.439 467.915 82.702 471.94 82.702C475.965 82.702 479.227 79.44 479.227 75.415V13.749C479.225 6.167 473.057 0 465.476 0Z" fill="#1F2937"/>
</svg>
