<svg width="512" height="512" viewBox="0 0 512 512" fill="none" xmlns="http://www.w3.org/2000/svg">
<path d="M234.717 60.1406H107.418C99.698 60.1406 93.417 66.4216 93.417 74.1416V233.13C93.417 240.85 99.698 247.131 107.418 247.131H234.717C242.437 247.131 248.718 240.85 248.718 233.13V74.1416C248.718 66.4216 242.437 60.1406 234.717 60.1406ZM234.145 232.557H107.99V74.7136H234.145V232.557Z" fill="white"/>
<path d="M234.717 263.639H107.418C99.698 263.639 93.417 269.92 93.417 277.64V436.627C93.417 444.348 99.698 450.628 107.418 450.628H234.717C242.437 450.628 248.718 444.347 248.718 436.627V277.64C248.718 269.92 242.437 263.639 234.717 263.639ZM234.145 436.056H107.99V278.213H234.145V436.056Z" fill="white"/>
<path d="M404.582 60.1406H277.284C269.563 60.1406 263.282 66.4216 263.282 74.1416V233.13C263.282 240.85 269.563 247.131 277.284 247.131H404.582C412.303 247.131 418.584 240.85 418.584 233.13V74.1416C418.583 66.4216 412.303 60.1406 404.582 60.1406ZM404.01 232.557H277.855V74.7136H404.01V232.557Z" fill="white"/>
<path d="M404.582 263.639H277.284C269.563 263.639 263.282 269.92 263.282 277.64V436.627C263.282 444.348 269.563 450.628 277.284 450.628H404.582C412.303 450.628 418.584 444.347 418.584 436.627V277.64C418.583 269.92 412.303 263.639 404.582 263.639ZM404.01 436.056H277.855V278.213H404.01V436.056Z" fill="white"/>
<path d="M493.522 459.598H478.725V110.088C478.725 106.064 475.463 102.801 471.438 102.801C467.413 102.801 464.151 106.063 464.151 110.088V459.598H446.761V47.6709C446.761 39.0089 439.714 31.9619 431.052 31.9619H80.947C72.285 31.9619 65.238 39.0089 65.238 47.6709V459.598H47.848V387.756C47.848 383.732 44.586 380.469 40.561 380.469C36.536 380.469 33.274 383.731 33.274 387.756V459.598H18.478C10.425 459.598 3.87402 466.15 3.87402 474.202V497.396C3.87402 505.449 10.426 512 18.478 512H493.522C501.575 512 508.126 505.448 508.126 497.396V474.202C508.126 466.149 501.575 459.598 493.522 459.598ZM79.811 47.6709C79.811 47.0449 80.32 46.5349 80.947 46.5349H431.053C431.679 46.5349 432.189 47.0439 432.189 47.6709V459.598H79.811V47.6709ZM493.536 497.426C493.536 497.426 493.532 497.427 493.522 497.427L18.447 497.396L18.478 474.171L493.553 474.202L493.536 497.426Z" fill="white"/>
<path d="M464.976 0H47.024C39.443 0 33.275 6.167 33.275 13.749V353.165C33.275 357.188 36.537 360.451 40.562 360.451C44.586 360.451 47.849 357.189 47.849 353.164V14.573H464.153V75.415C464.153 79.439 467.415 82.702 471.44 82.702C475.465 82.702 478.727 79.44 478.727 75.415V13.749C478.725 6.167 472.557 0 464.976 0Z" fill="white"/>
</svg>
